<svg width="125" height="75" viewBox="0 0 125 75" fill="none" xmlns="http://www.w3.org/2000/svg">
<path d="M8 33.871V21.866M8 33.871H10M8 33.871H6M8 21.866V9.86096H26L20 15.8635L26 21.866H8Z" stroke="#262F56" stroke-width="2.5" stroke-linecap="round" stroke-linejoin="round"/>
<path d="M65.44 32.512C62.7093 32.512 60.7467 31.5733 59.552 29.696C58.3787 27.7973 57.792 25.056 57.792 21.472C57.792 19.8293 58.0373 18.0693 58.528 16.192C59.0187 14.2933 59.9147 12.64 61.216 11.232C62.5173 9.80267 64.2773 9.088 66.496 9.088C67.6907 9.088 68.7147 9.312 69.568 9.76C70.4213 10.1867 71.0613 10.72 71.488 11.36C71.936 11.9787 72.16 12.576 72.16 13.152C72.16 13.6213 72.0427 14.016 71.808 14.336C71.5733 14.6347 71.232 14.7947 70.784 14.816C70.2933 14.8373 69.9307 14.7093 69.696 14.432C69.4613 14.1333 69.344 13.8133 69.344 13.472C69.344 13.024 69.472 12.576 69.728 12.128C69.6 11.68 69.2373 11.264 68.64 10.88C68.064 10.4747 67.3707 10.272 66.56 10.272C64.4267 10.272 62.9547 11.392 62.144 13.632C61.3333 15.8507 60.8853 18.208 60.8 20.704C61.376 19.9147 62.1227 19.2747 63.04 18.784C63.9573 18.272 65.0027 18.016 66.176 18.016C67.776 18.016 69.0773 18.368 70.08 19.072C71.104 19.776 71.8293 20.672 72.256 21.76C72.704 22.848 72.928 23.9893 72.928 25.184C72.928 26.5067 72.5973 27.7333 71.936 28.864C71.296 29.9733 70.4 30.8587 69.248 31.52C68.1173 32.1813 66.848 32.512 65.44 32.512ZM65.504 31.264C66.912 31.264 67.9573 30.752 68.64 29.728C69.344 28.704 69.696 27.424 69.696 25.888C69.696 24.2453 69.3867 22.7627 68.768 21.44C68.1707 20.1173 67.0827 19.456 65.504 19.456C64.5227 19.456 63.5733 19.808 62.656 20.512C61.76 21.216 61.152 22.0373 60.832 22.976C60.96 25.3653 61.3867 27.3493 62.112 28.928C62.8373 30.4853 63.968 31.264 65.504 31.264ZM84.452 32.512C81.4867 32.512 79.3853 31.3813 78.148 29.12C76.9107 26.8587 76.292 24.1173 76.292 20.896C76.292 18.9547 76.58 17.088 77.156 15.296C77.7533 13.4827 78.6707 12 79.908 10.848C81.1453 9.67467 82.7027 9.088 84.58 9.088C86.5213 9.088 88.0893 9.664 89.284 10.816C90.4787 11.9467 91.332 13.3867 91.844 15.136C92.356 16.8853 92.612 18.752 92.612 20.736C92.612 22.656 92.324 24.512 91.748 26.304C91.1933 28.096 90.2973 29.5787 89.06 30.752C87.844 31.9253 86.308 32.512 84.452 32.512ZM84.644 31.264C86.308 31.264 87.5027 30.3147 88.228 28.416C88.9533 26.496 89.316 24.16 89.316 21.408C89.316 18.336 88.9427 15.7227 88.196 13.568C87.4707 11.392 86.244 10.304 84.516 10.304C82.8093 10.304 81.5613 11.2747 80.772 13.216C79.9827 15.1573 79.588 17.4933 79.588 20.224C79.588 23.0827 79.9613 25.6427 80.708 27.904C81.476 30.144 82.788 31.264 84.644 31.264ZM101.575 22.784L95.495 22.816V20.896L101.575 20.928V14.624H103.655V20.928L109.735 20.96V22.752L103.655 22.784V29.376H101.575V22.784Z" fill="#10375C"/>
<path d="M65.512 65.632C65.5973 65.632 65.672 65.6667 65.736 65.736L66.352 66.4C65.8827 66.944 65.312 67.368 64.64 67.672C63.9733 67.976 63.1653 68.128 62.216 68.128C61.3947 68.128 60.648 67.9867 59.976 67.704C59.304 67.416 58.7307 67.016 58.256 66.504C57.7813 65.9867 57.4133 65.368 57.152 64.648C56.8907 63.928 56.76 63.136 56.76 62.272C56.76 61.408 56.896 60.616 57.168 59.896C57.44 59.176 57.8213 58.5573 58.312 58.04C58.808 57.5227 59.4 57.1227 60.088 56.84C60.776 56.552 61.536 56.408 62.368 56.408C63.184 56.408 63.904 56.5387 64.528 56.8C65.152 57.0613 65.7013 57.416 66.176 57.864L65.664 58.576C65.632 58.6293 65.5893 58.6747 65.536 58.712C65.488 58.744 65.4213 58.76 65.336 58.76C65.24 58.76 65.1227 58.7093 64.984 58.608C64.8453 58.5013 64.664 58.384 64.44 58.256C64.216 58.128 63.936 58.0133 63.6 57.912C63.264 57.8053 62.8507 57.752 62.36 57.752C61.768 57.752 61.2267 57.856 60.736 58.064C60.2453 58.2667 59.8213 58.5627 59.464 58.952C59.112 59.3413 58.8373 59.816 58.64 60.376C58.4427 60.936 58.344 61.568 58.344 62.272C58.344 62.9867 58.4453 63.624 58.648 64.184C58.856 64.744 59.136 65.2187 59.488 65.608C59.8453 65.992 60.264 66.2853 60.744 66.488C61.2293 66.6907 61.752 66.792 62.312 66.792C62.6533 66.792 62.96 66.7733 63.232 66.736C63.5093 66.6933 63.7627 66.6293 63.992 66.544C64.2267 66.4587 64.4427 66.352 64.64 66.224C64.8427 66.0907 65.0427 65.9333 65.24 65.752C65.3307 65.672 65.4213 65.632 65.512 65.632ZM71.0753 59.768C71.6673 59.768 72.2006 59.8667 72.6753 60.064C73.1499 60.2613 73.5553 60.5413 73.8913 60.904C74.2273 61.2667 74.4833 61.7067 74.6593 62.224C74.8406 62.736 74.9313 63.3093 74.9313 63.944C74.9313 64.584 74.8406 65.16 74.6593 65.672C74.4833 66.184 74.2273 66.6213 73.8913 66.984C73.5553 67.3467 73.1499 67.6267 72.6753 67.824C72.2006 68.016 71.6673 68.112 71.0753 68.112C70.4779 68.112 69.9393 68.016 69.4593 67.824C68.9846 67.6267 68.5793 67.3467 68.2433 66.984C67.9073 66.6213 67.6486 66.184 67.4673 65.672C67.2913 65.16 67.2033 64.584 67.2033 63.944C67.2033 63.3093 67.2913 62.736 67.4673 62.224C67.6486 61.7067 67.9073 61.2667 68.2433 60.904C68.5793 60.5413 68.9846 60.2613 69.4593 60.064C69.9393 59.8667 70.4779 59.768 71.0753 59.768ZM71.0753 67C71.8753 67 72.4726 66.7333 72.8673 66.2C73.2619 65.6613 73.4593 64.912 73.4593 63.952C73.4593 62.9867 73.2619 62.2347 72.8673 61.696C72.4726 61.1573 71.8753 60.888 71.0753 60.888C70.6699 60.888 70.3153 60.9573 70.0113 61.096C69.7126 61.2347 69.4619 61.4347 69.2593 61.696C69.0619 61.9573 68.9126 62.28 68.8113 62.664C68.7153 63.0427 68.6673 63.472 68.6673 63.952C68.6673 64.912 68.8646 65.6613 69.2593 66.2C69.6593 66.7333 70.2646 67 71.0753 67ZM83.4014 59.896V68H82.5534C82.3507 68 82.2227 67.9013 82.1694 67.704L82.0574 66.832C81.7054 67.2213 81.3107 67.536 80.8734 67.776C80.436 68.0107 79.9347 68.128 79.3694 68.128C78.9267 68.128 78.5347 68.056 78.1934 67.912C77.8574 67.7627 77.5747 67.5547 77.3454 67.288C77.116 67.0213 76.9427 66.6987 76.8254 66.32C76.7134 65.9413 76.6574 65.5227 76.6574 65.064V59.896H78.0814V65.064C78.0814 65.6773 78.22 66.152 78.4974 66.488C78.78 66.824 79.2094 66.992 79.7854 66.992C80.2067 66.992 80.5987 66.8933 80.9614 66.696C81.3294 66.4933 81.668 66.216 81.9774 65.864V59.896H83.4014ZM87.0033 61.072C87.1793 60.8747 87.3659 60.696 87.5633 60.536C87.7606 60.376 87.9686 60.24 88.1873 60.128C88.4113 60.0107 88.6459 59.9227 88.8913 59.864C89.1419 59.8 89.4113 59.768 89.6993 59.768C90.1419 59.768 90.5313 59.8427 90.8673 59.992C91.2086 60.136 91.4913 60.344 91.7153 60.616C91.9446 60.8827 92.1179 61.2053 92.2353 61.584C92.3526 61.9627 92.4113 62.3813 92.4113 62.84V68H90.9793V62.84C90.9793 62.2267 90.8379 61.752 90.5553 61.416C90.2779 61.0747 89.8539 60.904 89.2833 60.904C88.8619 60.904 88.4673 61.0053 88.0993 61.208C87.7366 61.4107 87.4006 61.6853 87.0913 62.032V68H85.6593V59.896H86.5153C86.7179 59.896 86.8433 59.9947 86.8913 60.192L87.0033 61.072ZM96.9598 68.128C96.3198 68.128 95.8264 67.9493 95.4798 67.592C95.1384 67.2347 94.9678 66.72 94.9678 66.048V61.088H93.9918C93.9064 61.088 93.8344 61.064 93.7758 61.016C93.7171 60.9627 93.6878 60.8827 93.6878 60.776V60.208L95.0158 60.04L95.3438 57.536C95.3598 57.456 95.3944 57.392 95.4478 57.344C95.5064 57.2907 95.5811 57.264 95.6718 57.264H96.3918V60.056H98.7358V61.088H96.3918V65.952C96.3918 66.2933 96.4744 66.5467 96.6398 66.712C96.8051 66.8773 97.0184 66.96 97.2798 66.96C97.4291 66.96 97.5571 66.9413 97.6638 66.904C97.7758 66.8613 97.8718 66.816 97.9518 66.768C98.0318 66.72 98.0984 66.6773 98.1518 66.64C98.2104 66.5973 98.2611 66.576 98.3038 66.576C98.3784 66.576 98.4451 66.6213 98.5038 66.712L98.9198 67.392C98.6744 67.6213 98.3784 67.8027 98.0318 67.936C97.6851 68.064 97.3278 68.128 96.9598 68.128ZM101.558 61.52C101.814 60.9653 102.129 60.5333 102.502 60.224C102.875 59.9093 103.331 59.752 103.87 59.752C104.041 59.752 104.203 59.7707 104.358 59.808C104.518 59.8453 104.659 59.904 104.782 59.984L104.678 61.048C104.646 61.1813 104.566 61.248 104.438 61.248C104.363 61.248 104.254 61.232 104.11 61.2C103.966 61.168 103.803 61.152 103.622 61.152C103.366 61.152 103.137 61.1893 102.934 61.264C102.737 61.3387 102.558 61.4507 102.398 61.6C102.243 61.744 102.102 61.9253 101.974 62.144C101.851 62.3573 101.739 62.6027 101.638 62.88V68H100.206V59.896H101.022C101.177 59.896 101.283 59.9253 101.342 59.984C101.401 60.0427 101.441 60.144 101.462 60.288L101.558 61.52ZM107.538 59.896V68H106.114V59.896H107.538ZM107.842 57.352C107.842 57.4907 107.813 57.6213 107.754 57.744C107.701 57.8613 107.626 57.968 107.53 58.064C107.44 58.1547 107.33 58.2267 107.202 58.28C107.08 58.3333 106.949 58.36 106.81 58.36C106.672 58.36 106.541 58.3333 106.418 58.28C106.301 58.2267 106.197 58.1547 106.106 58.064C106.016 57.968 105.944 57.8613 105.89 57.744C105.837 57.6213 105.81 57.4907 105.81 57.352C105.81 57.2133 105.837 57.0827 105.89 56.96C105.944 56.832 106.016 56.7227 106.106 56.632C106.197 56.536 106.301 56.4613 106.418 56.408C106.541 56.3547 106.672 56.328 106.81 56.328C106.949 56.328 107.08 56.3547 107.202 56.408C107.33 56.4613 107.44 56.536 107.53 56.632C107.626 56.7227 107.701 56.832 107.754 56.96C107.813 57.0827 107.842 57.2133 107.842 57.352ZM115.302 63.064C115.302 62.7333 115.254 62.432 115.158 62.16C115.067 61.8827 114.931 61.6453 114.75 61.448C114.574 61.2453 114.358 61.0907 114.102 60.984C113.846 60.872 113.555 60.816 113.23 60.816C112.547 60.816 112.006 61.016 111.606 61.416C111.211 61.8107 110.966 62.36 110.87 63.064H115.302ZM116.454 66.864C116.278 67.0773 116.067 67.264 115.822 67.424C115.577 67.5787 115.313 67.7067 115.03 67.808C114.753 67.9093 114.465 67.984 114.166 68.032C113.867 68.0853 113.571 68.112 113.278 68.112C112.718 68.112 112.201 68.0187 111.726 67.832C111.257 67.64 110.849 67.3627 110.502 67C110.161 66.632 109.894 66.1787 109.702 65.64C109.51 65.1013 109.414 64.4827 109.414 63.784C109.414 63.2187 109.499 62.6907 109.67 62.2C109.846 61.7093 110.097 61.2853 110.422 60.928C110.747 60.5653 111.145 60.2827 111.614 60.08C112.083 59.872 112.611 59.768 113.198 59.768C113.683 59.768 114.131 59.8507 114.542 60.016C114.958 60.176 115.315 60.4107 115.614 60.72C115.918 61.024 116.155 61.4027 116.326 61.856C116.497 62.304 116.582 62.816 116.582 63.392C116.582 63.616 116.558 63.7653 116.51 63.84C116.462 63.9147 116.371 63.952 116.238 63.952H110.822C110.838 64.464 110.907 64.9093 111.03 65.288C111.158 65.6667 111.334 65.984 111.558 66.24C111.782 66.4907 112.049 66.68 112.358 66.808C112.667 66.9307 113.014 66.992 113.398 66.992C113.755 66.992 114.062 66.952 114.318 66.872C114.579 66.7867 114.803 66.696 114.99 66.6C115.177 66.504 115.331 66.416 115.454 66.336C115.582 66.2507 115.691 66.208 115.782 66.208C115.899 66.208 115.99 66.2533 116.054 66.344L116.454 66.864ZM123.051 61.232C122.987 61.3493 122.888 61.408 122.755 61.408C122.675 61.408 122.584 61.3787 122.483 61.32C122.382 61.2613 122.256 61.1973 122.107 61.128C121.963 61.0533 121.79 60.9867 121.587 60.928C121.384 60.864 121.144 60.832 120.867 60.832C120.627 60.832 120.411 60.864 120.219 60.928C120.027 60.9867 119.862 61.0693 119.723 61.176C119.59 61.2827 119.486 61.408 119.411 61.552C119.342 61.6907 119.307 61.8427 119.307 62.008C119.307 62.216 119.366 62.3893 119.483 62.528C119.606 62.6667 119.766 62.7867 119.963 62.888C120.16 62.9893 120.384 63.08 120.635 63.16C120.886 63.2347 121.142 63.3173 121.403 63.408C121.67 63.4933 121.928 63.5893 122.179 63.696C122.43 63.8027 122.654 63.936 122.851 64.096C123.048 64.256 123.206 64.4533 123.323 64.688C123.446 64.9173 123.507 65.1947 123.507 65.52C123.507 65.8933 123.44 66.24 123.307 66.56C123.174 66.8747 122.976 67.1493 122.715 67.384C122.454 67.6133 122.134 67.7947 121.755 67.928C121.376 68.0613 120.939 68.128 120.443 68.128C119.878 68.128 119.366 68.0373 118.907 67.856C118.448 67.6693 118.059 67.432 117.739 67.144L118.075 66.6C118.118 66.5307 118.168 66.4773 118.227 66.44C118.286 66.4027 118.36 66.384 118.451 66.384C118.547 66.384 118.648 66.4213 118.755 66.496C118.862 66.5707 118.99 66.6533 119.139 66.744C119.294 66.8347 119.48 66.9173 119.699 66.992C119.918 67.0667 120.19 67.104 120.515 67.104C120.792 67.104 121.035 67.0693 121.243 67C121.451 66.9253 121.624 66.8267 121.763 66.704C121.902 66.5813 122.003 66.44 122.067 66.28C122.136 66.12 122.171 65.9493 122.171 65.768C122.171 65.544 122.11 65.36 121.987 65.216C121.87 65.0667 121.712 64.9413 121.515 64.84C121.318 64.7333 121.091 64.6427 120.835 64.568C120.584 64.488 120.326 64.4053 120.059 64.32C119.798 64.2347 119.539 64.1387 119.283 64.032C119.032 63.92 118.808 63.7813 118.611 63.616C118.414 63.4507 118.254 63.248 118.131 63.008C118.014 62.7627 117.955 62.4667 117.955 62.12C117.955 61.8107 118.019 61.5147 118.147 61.232C118.275 60.944 118.462 60.6933 118.707 60.48C118.952 60.2613 119.254 60.088 119.611 59.96C119.968 59.832 120.376 59.768 120.835 59.768C121.368 59.768 121.846 59.8533 122.267 60.024C122.694 60.1893 123.062 60.4187 123.371 60.712L123.051 61.232Z" fill="#9A9A9A"/>
</svg>
