<svg width="204" height="75" viewBox="0 0 204 75" fill="none" xmlns="http://www.w3.org/2000/svg">
<g clip-path="url(#clip0)">
<path d="M15.9376 31.1562C17.0766 31.1562 18.0001 30.2328 18.0001 29.0937C18.0001 27.9547 17.0766 27.0312 15.9376 27.0312C14.7985 27.0312 13.8751 27.9547 13.8751 29.0937C13.8751 30.2328 14.7985 31.1562 15.9376 31.1562Z" fill="#10375C"/>
<path d="M22.0719 22.0182C20.4456 20.4071 18.1146 19.4062 15.9882 19.4062C15.988 19.4062 15.9875 19.4062 15.9873 19.4062H15.8972C15.8968 19.4062 15.8966 19.4062 15.8963 19.4062C13.7698 19.4062 11.4386 20.4071 9.8124 22.0182C9.32203 22.5041 9.31834 23.2956 9.80421 23.786C10.0487 24.0327 10.3704 24.1562 10.6922 24.1562C11.0102 24.1562 11.3282 24.0357 11.5719 23.7942C12.7296 22.6472 14.4269 21.9062 15.8964 21.9062C15.8966 21.9062 15.8968 21.9062 15.897 21.9062H15.9875C15.9877 21.9062 15.9878 21.9062 15.988 21.9062C17.4573 21.9062 19.1548 22.6473 20.3123 23.7942C20.8027 24.2801 21.5943 24.2766 22.0801 23.786C22.566 23.2956 22.5623 22.5041 22.0719 22.0182Z" fill="#10375C"/>
<path d="M31.6644 11.679C27.5563 7.27131 21.9934 4.84381 15.9998 4.84375C10.0066 4.84381 4.44372 7.27131 0.335543 11.679C-0.135081 12.184 -0.107269 12.975 0.39773 13.4457C0.902792 13.9163 1.69373 13.8885 2.16441 13.3835C5.79441 9.48874 10.7079 7.34381 16.0002 7.34375C21.2921 7.34381 26.2056 9.48874 29.8355 13.3835C30.0817 13.6476 30.4155 13.7812 30.7502 13.7812C31.0554 13.7812 31.3614 13.6701 31.6022 13.4457C32.1072 12.9749 32.1351 12.184 31.6644 11.679Z" fill="#10375C"/>
<path d="M27.0746 16.8411C24.0379 13.7815 20.1049 12.0966 15.9999 12.0967C11.8939 12.0967 7.96081 13.7817 4.92507 16.8412C4.43882 17.3313 4.44188 18.1227 4.93194 18.609C5.422 19.0952 6.21344 19.0922 6.69969 18.6021C9.2625 16.0192 12.5654 14.5967 15.9999 14.5967C19.4335 14.5965 22.7363 16.0191 25.3001 18.6022C25.5445 18.8484 25.8658 18.9717 26.1873 18.9717C26.5056 18.9717 26.8241 18.8508 27.068 18.6088C27.5579 18.1225 27.5609 17.3311 27.0746 16.8411Z" fill="#10375C"/>
</g>
<path d="M64.128 32.512C62.848 32.512 61.7067 32.288 60.704 31.84C59.7227 31.392 58.9653 30.8373 58.432 30.176C57.92 29.4933 57.664 28.8213 57.664 28.16C57.664 27.648 57.8027 27.232 58.08 26.912C58.3573 26.5707 58.7413 26.4 59.232 26.4C59.7227 26.4 60.0747 26.56 60.288 26.88C60.5227 27.1787 60.64 27.4987 60.64 27.84C60.64 28.2027 60.5227 28.6187 60.288 29.088C60.416 29.792 60.864 30.336 61.632 30.72C62.4 31.0827 63.2107 31.264 64.064 31.264C65.5787 31.264 66.72 30.7413 67.488 29.696C68.2773 28.6507 68.672 27.3707 68.672 25.856C68.672 21.6533 67.0187 19.552 63.712 19.552C63.1147 19.552 62.3893 19.6587 61.536 19.872C60.6827 20.0853 60 20.352 59.488 20.672L58.592 19.84L58.528 9.6H66.816C68.0107 9.6 68.8427 9.44 69.312 9.12C69.7813 8.8 70.016 8.26667 70.016 7.52H70.88L70.688 11.744L60 11.968V19.008C60.5973 18.752 61.3013 18.5387 62.112 18.368C62.944 18.1973 63.7867 18.112 64.64 18.112C66.304 18.112 67.68 18.4533 68.768 19.136C69.8773 19.8187 70.688 20.704 71.2 21.792C71.7333 22.88 72 24.0427 72 25.28C72 26.7947 71.6373 28.1067 70.912 29.216C70.208 30.304 69.2587 31.1253 68.064 31.68C66.8693 32.2347 65.5573 32.512 64.128 32.512ZM83.3583 32.512C80.3929 32.512 78.2916 31.3813 77.0543 29.12C75.8169 26.8587 75.1983 24.1173 75.1983 20.896C75.1983 18.9547 75.4863 17.088 76.0623 15.296C76.6596 13.4827 77.5769 12 78.8143 10.848C80.0516 9.67467 81.6089 9.088 83.4863 9.088C85.4276 9.088 86.9956 9.664 88.1903 10.816C89.3849 11.9467 90.2383 13.3867 90.7503 15.136C91.2623 16.8853 91.5183 18.752 91.5183 20.736C91.5183 22.656 91.2303 24.512 90.6543 26.304C90.0996 28.096 89.2036 29.5787 87.9663 30.752C86.7503 31.9253 85.2143 32.512 83.3583 32.512ZM83.5503 31.264C85.2143 31.264 86.4089 30.3147 87.1343 28.416C87.8596 26.496 88.2223 24.16 88.2223 21.408C88.2223 18.336 87.8489 15.7227 87.1023 13.568C86.3769 11.392 85.1503 10.304 83.4223 10.304C81.7156 10.304 80.4676 11.2747 79.6783 13.216C78.8889 15.1573 78.4943 17.4933 78.4943 20.224C78.4943 23.0827 78.8676 25.6427 79.6143 27.904C80.3823 30.144 81.6943 31.264 83.5503 31.264ZM103.233 32.512C100.268 32.512 98.1666 31.3813 96.9293 29.12C95.6919 26.8587 95.0733 24.1173 95.0733 20.896C95.0733 18.9547 95.3613 17.088 95.9373 15.296C96.5346 13.4827 97.4519 12 98.6893 10.848C99.9266 9.67467 101.484 9.088 103.361 9.088C105.303 9.088 106.871 9.664 108.065 10.816C109.26 11.9467 110.113 13.3867 110.625 15.136C111.137 16.8853 111.393 18.752 111.393 20.736C111.393 22.656 111.105 24.512 110.529 26.304C109.975 28.096 109.079 29.5787 107.841 30.752C106.625 31.9253 105.089 32.512 103.233 32.512ZM103.425 31.264C105.089 31.264 106.284 30.3147 107.009 28.416C107.735 26.496 108.097 24.16 108.097 21.408C108.097 18.336 107.724 15.7227 106.977 13.568C106.252 11.392 105.025 10.304 103.297 10.304C101.591 10.304 100.343 11.2747 99.5533 13.216C98.7639 15.1573 98.3693 17.4933 98.3693 20.224C98.3693 23.0827 98.7426 25.6427 99.4893 27.904C100.257 30.144 101.569 31.264 103.425 31.264ZM133.595 28.32C131.973 24.7147 130.715 21.8773 129.819 19.808C128.923 17.7173 128.048 15.52 127.195 13.216L127.163 14.624C126.971 20.8747 126.853 25.3333 126.811 28C126.811 28.32 126.8 28.5547 126.779 28.704C126.779 29.4293 126.747 30.1013 126.683 30.72L129.083 30.592V32H122.971V30.944C123.867 30.9227 124.443 30.6773 124.699 30.208C124.976 29.7173 125.136 28.9813 125.179 28L125.883 10.88L123.579 10.976V9.6H128.475L132.827 19.648C134.405 23.36 135.621 26.176 136.475 28.096H136.539C136.795 27.456 137.339 26.08 138.171 23.968C138.981 21.92 139.909 19.6693 140.955 17.216C142.171 14.3573 143.216 11.8187 144.091 9.6H148.827V10.656C148.059 10.6347 147.493 10.848 147.131 11.296C146.768 11.7227 146.587 12.4587 146.587 13.504L146.619 14.144L147.451 28.704C147.493 29.1947 147.515 29.856 147.515 30.688L149.851 30.592V32H142.683V30.944C143.515 30.9227 144.08 30.688 144.379 30.24C144.677 29.7707 144.827 29.0453 144.827 28.064C144.827 27.6587 144.816 27.3493 144.795 27.136L143.963 13.504C143.92 13.6107 143.856 13.7493 143.771 13.92C143.707 14.0907 143.632 14.2933 143.547 14.528L136.347 32.32H135.387L133.595 28.32ZM159.898 32.512C159.044 32.512 158.202 32.3627 157.37 32.064C156.538 31.7653 155.812 31.264 155.194 30.56L154.426 32H153.306L153.37 12C153.37 11.1893 153.402 10.496 153.466 9.92L151.194 10.048V8.704C152.474 8.704 153.38 8.62933 153.914 8.48C154.468 8.33067 154.895 8.11733 155.194 7.84H156.122V17.376C156.719 16.7787 157.423 16.32 158.234 16C159.066 15.6587 159.972 15.488 160.954 15.488C162.319 15.488 163.556 15.8187 164.666 16.48C165.775 17.1413 166.639 18.0907 167.258 19.328C167.898 20.5653 168.218 21.9947 168.218 23.616C168.218 25.3867 167.834 26.944 167.066 28.288C166.298 29.632 165.274 30.6773 163.994 31.424C162.714 32.1493 161.348 32.512 159.898 32.512ZM159.898 31.2C161.434 31.2 162.65 30.5813 163.546 29.344C164.463 28.0853 164.922 26.4427 164.922 24.416C164.922 22.176 164.506 20.3947 163.674 19.072C162.842 17.728 161.615 17.056 159.994 17.056C159.29 17.056 158.586 17.2267 157.882 17.568C157.199 17.888 156.612 18.3253 156.122 18.88V26.976C156.122 29.792 157.38 31.2 159.898 31.2ZM170.683 39.2C171.301 39.2 171.739 39.04 171.995 38.72C172.272 38.4213 172.432 38.0373 172.475 37.568C172.517 37.12 172.549 36.3627 172.571 35.296L172.635 19.84C172.635 18.944 172.677 18.2507 172.763 17.76L170.491 17.888V16.544C171.749 16.544 172.613 16.48 173.083 16.352C173.552 16.2027 173.936 15.9787 174.235 15.68H175.195C175.28 16.7253 175.323 17.3013 175.323 17.408C175.963 16.832 176.731 16.3733 177.627 16.032C178.523 15.6693 179.408 15.488 180.283 15.488C181.541 15.488 182.704 15.8187 183.771 16.48C184.837 17.12 185.691 18.048 186.331 19.264C186.992 20.4587 187.323 21.8453 187.323 23.424C187.323 25.1947 186.949 26.7733 186.203 28.16C185.456 29.5253 184.453 30.592 183.195 31.36C181.957 32.128 180.613 32.512 179.163 32.512C177.691 32.512 176.411 32.16 175.323 31.456V36.768C175.323 37.728 175.28 38.4533 175.195 38.944L177.211 38.848V40.16H170.683V39.2ZM179.099 31.232C180.101 31.232 180.965 30.9227 181.691 30.304C182.437 29.6853 183.013 28.8213 183.419 27.712C183.824 26.6027 184.027 25.344 184.027 23.936C184.027 22.016 183.611 20.3947 182.779 19.072C181.968 17.728 180.752 17.056 179.131 17.056C178.427 17.056 177.744 17.2267 177.083 17.568C176.421 17.9093 175.845 18.336 175.355 18.848C175.376 18.9973 175.387 19.648 175.387 20.8L175.355 29.984C176.443 30.816 177.691 31.232 179.099 31.232ZM196.624 32.512C195.622 32.512 194.704 32.3733 193.872 32.096C193.04 31.84 192.326 31.5093 191.728 31.104L191.856 32.224H190.512L190.32 26.72H191.312C191.355 27.5947 191.59 28.3733 192.016 29.056C192.464 29.7387 193.04 30.2827 193.744 30.688C194.47 31.072 195.238 31.264 196.048 31.264C196.966 31.264 197.776 31.0507 198.48 30.624C199.206 30.176 199.568 29.5467 199.568 28.736C199.568 28.1387 199.387 27.6373 199.024 27.232C198.683 26.8267 198.246 26.496 197.712 26.24C197.2 25.9627 196.475 25.6427 195.536 25.28C194.406 24.8533 193.499 24.4587 192.816 24.096C192.134 23.712 191.547 23.2 191.056 22.56C190.566 21.92 190.32 21.1093 190.32 20.128C190.32 19.424 190.491 18.72 190.832 18.016C191.174 17.312 191.75 16.7147 192.56 16.224C193.371 15.7333 194.448 15.488 195.792 15.488C196.454 15.488 197.126 15.5947 197.808 15.808C198.512 16.0213 199.163 16.3733 199.76 16.864L199.696 15.648H201.04V21.248H200.016C199.952 20.0107 199.568 18.944 198.864 18.048C198.182 17.1307 197.211 16.672 195.952 16.672C194.992 16.672 194.224 16.9173 193.648 17.408C193.094 17.8773 192.816 18.4427 192.816 19.104C192.816 19.7227 192.998 20.2453 193.36 20.672C193.744 21.0987 194.214 21.4613 194.768 21.76C195.323 22.0587 196.07 22.3893 197.008 22.752C198.118 23.2 199.014 23.616 199.696 24C200.379 24.384 200.955 24.896 201.424 25.536C201.915 26.1547 202.16 26.912 202.16 27.808C202.16 28.832 201.894 29.696 201.36 30.4C200.848 31.104 200.166 31.6373 199.312 32C198.48 32.3413 197.584 32.512 196.624 32.512Z" fill="#10375C"/>
<path d="M59.016 68H57.464V56.536H59.016V68ZM62.8314 61.072C63.0074 60.8747 63.194 60.696 63.3914 60.536C63.5887 60.376 63.7967 60.24 64.0154 60.128C64.2394 60.0107 64.474 59.9227 64.7194 59.864C64.97 59.8 65.2394 59.768 65.5274 59.768C65.97 59.768 66.3594 59.8427 66.6954 59.992C67.0367 60.136 67.3194 60.344 67.5434 60.616C67.7727 60.8827 67.946 61.2053 68.0634 61.584C68.1807 61.9627 68.2394 62.3813 68.2394 62.84V68H66.8074V62.84C66.8074 62.2267 66.666 61.752 66.3834 61.416C66.106 61.0747 65.682 60.904 65.1114 60.904C64.69 60.904 64.2954 61.0053 63.9274 61.208C63.5647 61.4107 63.2287 61.6853 62.9194 62.032V68H61.4874V59.896H62.3434C62.546 59.896 62.6714 59.9947 62.7194 60.192L62.8314 61.072ZM72.7879 68.128C72.1479 68.128 71.6545 67.9493 71.3079 67.592C70.9665 67.2347 70.7959 66.72 70.7959 66.048V61.088H69.8199C69.7345 61.088 69.6625 61.064 69.6039 61.016C69.5452 60.9627 69.5159 60.8827 69.5159 60.776V60.208L70.8439 60.04L71.1719 57.536C71.1879 57.456 71.2225 57.392 71.2759 57.344C71.3345 57.2907 71.4092 57.264 71.4999 57.264H72.2199V60.056H74.5639V61.088H72.2199V65.952C72.2199 66.2933 72.3025 66.5467 72.4679 66.712C72.6332 66.8773 72.8465 66.96 73.1079 66.96C73.2572 66.96 73.3852 66.9413 73.4919 66.904C73.6039 66.8613 73.6999 66.816 73.7799 66.768C73.8599 66.72 73.9265 66.6773 73.9799 66.64C74.0385 66.5973 74.0892 66.576 74.1319 66.576C74.2065 66.576 74.2732 66.6213 74.3319 66.712L74.7479 67.392C74.5025 67.6213 74.2065 67.8027 73.8599 67.936C73.5132 68.064 73.1559 68.128 72.7879 68.128ZM81.4114 63.064C81.4114 62.7333 81.3634 62.432 81.2674 62.16C81.1767 61.8827 81.0407 61.6453 80.8594 61.448C80.6834 61.2453 80.4674 61.0907 80.2114 60.984C79.9554 60.872 79.6647 60.816 79.3394 60.816C78.6567 60.816 78.1154 61.016 77.7154 61.416C77.3207 61.8107 77.0754 62.36 76.9794 63.064H81.4114ZM82.5634 66.864C82.3874 67.0773 82.1767 67.264 81.9314 67.424C81.686 67.5787 81.422 67.7067 81.1394 67.808C80.862 67.9093 80.574 67.984 80.2754 68.032C79.9767 68.0853 79.6807 68.112 79.3874 68.112C78.8274 68.112 78.31 68.0187 77.8354 67.832C77.366 67.64 76.958 67.3627 76.6114 67C76.27 66.632 76.0034 66.1787 75.8114 65.64C75.6194 65.1013 75.5234 64.4827 75.5234 63.784C75.5234 63.2187 75.6087 62.6907 75.7794 62.2C75.9554 61.7093 76.206 61.2853 76.5314 60.928C76.8567 60.5653 77.254 60.2827 77.7234 60.08C78.1927 59.872 78.7207 59.768 79.3074 59.768C79.7927 59.768 80.2407 59.8507 80.6514 60.016C81.0674 60.176 81.4247 60.4107 81.7234 60.72C82.0274 61.024 82.2647 61.4027 82.4354 61.856C82.606 62.304 82.6914 62.816 82.6914 63.392C82.6914 63.616 82.6674 63.7653 82.6194 63.84C82.5714 63.9147 82.4807 63.952 82.3474 63.952H76.9314C76.9474 64.464 77.0167 64.9093 77.1394 65.288C77.2674 65.6667 77.4434 65.984 77.6674 66.24C77.8914 66.4907 78.158 66.68 78.4674 66.808C78.7767 66.9307 79.1234 66.992 79.5074 66.992C79.8647 66.992 80.1714 66.952 80.4274 66.872C80.6887 66.7867 80.9127 66.696 81.0994 66.6C81.286 66.504 81.4407 66.416 81.5634 66.336C81.6914 66.2507 81.8007 66.208 81.8914 66.208C82.0087 66.208 82.0994 66.2533 82.1634 66.344L82.5634 66.864ZM85.7925 61.52C86.0485 60.9653 86.3632 60.5333 86.7365 60.224C87.1098 59.9093 87.5658 59.752 88.1045 59.752C88.2752 59.752 88.4378 59.7707 88.5925 59.808C88.7525 59.8453 88.8938 59.904 89.0165 59.984L88.9125 61.048C88.8805 61.1813 88.8005 61.248 88.6725 61.248C88.5978 61.248 88.4885 61.232 88.3445 61.2C88.2005 61.168 88.0378 61.152 87.8565 61.152C87.6005 61.152 87.3712 61.1893 87.1685 61.264C86.9712 61.3387 86.7925 61.4507 86.6325 61.6C86.4778 61.744 86.3365 61.9253 86.2085 62.144C86.0858 62.3573 85.9738 62.6027 85.8725 62.88V68H84.4405V59.896H85.2565C85.4112 59.896 85.5178 59.9253 85.5765 59.984C85.6352 60.0427 85.6752 60.144 85.6965 60.288L85.7925 61.52ZM91.6126 61.072C91.7886 60.8747 91.9753 60.696 92.1726 60.536C92.37 60.376 92.578 60.24 92.7966 60.128C93.0206 60.0107 93.2553 59.9227 93.5006 59.864C93.7513 59.8 94.0206 59.768 94.3086 59.768C94.7513 59.768 95.1406 59.8427 95.4766 59.992C95.818 60.136 96.1006 60.344 96.3246 60.616C96.554 60.8827 96.7273 61.2053 96.8446 61.584C96.962 61.9627 97.0206 62.3813 97.0206 62.84V68H95.5886V62.84C95.5886 62.2267 95.4473 61.752 95.1646 61.416C94.8873 61.0747 94.4633 60.904 93.8926 60.904C93.4713 60.904 93.0766 61.0053 92.7086 61.208C92.346 61.4107 92.01 61.6853 91.7006 62.032V68H90.2686V59.896H91.1246C91.3273 59.896 91.4526 59.9947 91.5006 60.192L91.6126 61.072ZM104.615 63.064C104.615 62.7333 104.567 62.432 104.471 62.16C104.38 61.8827 104.244 61.6453 104.063 61.448C103.887 61.2453 103.671 61.0907 103.415 60.984C103.159 60.872 102.868 60.816 102.543 60.816C101.86 60.816 101.319 61.016 100.919 61.416C100.524 61.8107 100.279 62.36 100.183 63.064H104.615ZM105.767 66.864C105.591 67.0773 105.38 67.264 105.135 67.424C104.889 67.5787 104.625 67.7067 104.343 67.808C104.065 67.9093 103.777 67.984 103.479 68.032C103.18 68.0853 102.884 68.112 102.591 68.112C102.031 68.112 101.513 68.0187 101.039 67.832C100.569 67.64 100.161 67.3627 99.8145 67C99.4732 66.632 99.2065 66.1787 99.0145 65.64C98.8225 65.1013 98.7265 64.4827 98.7265 63.784C98.7265 63.2187 98.8118 62.6907 98.9825 62.2C99.1585 61.7093 99.4092 61.2853 99.7345 60.928C100.06 60.5653 100.457 60.2827 100.927 60.08C101.396 59.872 101.924 59.768 102.511 59.768C102.996 59.768 103.444 59.8507 103.855 60.016C104.271 60.176 104.628 60.4107 104.927 60.72C105.231 61.024 105.468 61.4027 105.639 61.856C105.809 62.304 105.895 62.816 105.895 63.392C105.895 63.616 105.871 63.7653 105.823 63.84C105.775 63.9147 105.684 63.952 105.551 63.952H100.135C100.151 64.464 100.22 64.9093 100.343 65.288C100.471 65.6667 100.647 65.984 100.871 66.24C101.095 66.4907 101.361 66.68 101.671 66.808C101.98 66.9307 102.327 66.992 102.711 66.992C103.068 66.992 103.375 66.952 103.631 66.872C103.892 66.7867 104.116 66.696 104.303 66.6C104.489 66.504 104.644 66.416 104.767 66.336C104.895 66.2507 105.004 66.208 105.095 66.208C105.212 66.208 105.303 66.2533 105.367 66.344L105.767 66.864ZM110.069 68.128C109.429 68.128 108.936 67.9493 108.589 67.592C108.248 67.2347 108.077 66.72 108.077 66.048V61.088H107.101C107.016 61.088 106.944 61.064 106.885 61.016C106.826 60.9627 106.797 60.8827 106.797 60.776V60.208L108.125 60.04L108.453 57.536C108.469 57.456 108.504 57.392 108.557 57.344C108.616 57.2907 108.69 57.264 108.781 57.264H109.501V60.056H111.845V61.088H109.501V65.952C109.501 66.2933 109.584 66.5467 109.749 66.712C109.914 66.8773 110.128 66.96 110.389 66.96C110.538 66.96 110.666 66.9413 110.773 66.904C110.885 66.8613 110.981 66.816 111.061 66.768C111.141 66.72 111.208 66.6773 111.261 66.64C111.32 66.5973 111.37 66.576 111.413 66.576C111.488 66.576 111.554 66.6213 111.613 66.712L112.029 67.392C111.784 67.6213 111.488 67.8027 111.141 67.936C110.794 68.064 110.437 68.128 110.069 68.128ZM122.129 61.232C122.065 61.3493 121.967 61.408 121.833 61.408C121.753 61.408 121.663 61.3787 121.561 61.32C121.46 61.2613 121.335 61.1973 121.185 61.128C121.041 61.0533 120.868 60.9867 120.665 60.928C120.463 60.864 120.223 60.832 119.945 60.832C119.705 60.832 119.489 60.864 119.297 60.928C119.105 60.9867 118.94 61.0693 118.801 61.176C118.668 61.2827 118.564 61.408 118.489 61.552C118.42 61.6907 118.385 61.8427 118.385 62.008C118.385 62.216 118.444 62.3893 118.561 62.528C118.684 62.6667 118.844 62.7867 119.041 62.888C119.239 62.9893 119.463 63.08 119.713 63.16C119.964 63.2347 120.22 63.3173 120.481 63.408C120.748 63.4933 121.007 63.5893 121.257 63.696C121.508 63.8027 121.732 63.936 121.929 64.096C122.127 64.256 122.284 64.4533 122.401 64.688C122.524 64.9173 122.585 65.1947 122.585 65.52C122.585 65.8933 122.519 66.24 122.385 66.56C122.252 66.8747 122.055 67.1493 121.793 67.384C121.532 67.6133 121.212 67.7947 120.833 67.928C120.455 68.0613 120.017 68.128 119.521 68.128C118.956 68.128 118.444 68.0373 117.985 67.856C117.527 67.6693 117.137 67.432 116.817 67.144L117.153 66.6C117.196 66.5307 117.247 66.4773 117.305 66.44C117.364 66.4027 117.439 66.384 117.529 66.384C117.625 66.384 117.727 66.4213 117.833 66.496C117.94 66.5707 118.068 66.6533 118.217 66.744C118.372 66.8347 118.559 66.9173 118.777 66.992C118.996 67.0667 119.268 67.104 119.593 67.104C119.871 67.104 120.113 67.0693 120.321 67C120.529 66.9253 120.703 66.8267 120.841 66.704C120.98 66.5813 121.081 66.44 121.145 66.28C121.215 66.12 121.249 65.9493 121.249 65.768C121.249 65.544 121.188 65.36 121.065 65.216C120.948 65.0667 120.791 64.9413 120.593 64.84C120.396 64.7333 120.169 64.6427 119.913 64.568C119.663 64.488 119.404 64.4053 119.137 64.32C118.876 64.2347 118.617 64.1387 118.361 64.032C118.111 63.92 117.887 63.7813 117.689 63.616C117.492 63.4507 117.332 63.248 117.209 63.008C117.092 62.7627 117.033 62.4667 117.033 62.12C117.033 61.8107 117.097 61.5147 117.225 61.232C117.353 60.944 117.54 60.6933 117.785 60.48C118.031 60.2613 118.332 60.088 118.689 59.96C119.047 59.832 119.455 59.768 119.913 59.768C120.447 59.768 120.924 59.8533 121.345 60.024C121.772 60.1893 122.14 60.4187 122.449 60.712L122.129 61.232ZM125.763 66.048C126.024 66.4 126.31 66.648 126.619 66.792C126.928 66.936 127.275 67.008 127.659 67.008C128.416 67.008 128.998 66.7387 129.403 66.2C129.808 65.6613 130.011 64.8933 130.011 63.896C130.011 63.368 129.963 62.9147 129.867 62.536C129.776 62.1573 129.643 61.848 129.467 61.608C129.291 61.3627 129.075 61.184 128.819 61.072C128.563 60.96 128.272 60.904 127.947 60.904C127.483 60.904 127.075 61.0107 126.723 61.224C126.376 61.4373 126.056 61.7387 125.763 62.128V66.048ZM125.691 61.152C126.032 60.7307 126.427 60.392 126.875 60.136C127.323 59.88 127.835 59.752 128.411 59.752C128.88 59.752 129.304 59.8427 129.683 60.024C130.062 60.2 130.384 60.464 130.651 60.816C130.918 61.1627 131.123 61.5947 131.267 62.112C131.411 62.6293 131.483 63.224 131.483 63.896C131.483 64.4933 131.403 65.0507 131.243 65.568C131.083 66.08 130.851 66.5253 130.547 66.904C130.248 67.2773 129.88 67.5733 129.443 67.792C129.011 68.0053 128.523 68.112 127.979 68.112C127.483 68.112 127.056 68.0293 126.699 67.864C126.347 67.6933 126.035 67.4587 125.763 67.16V70.744H124.331V59.896H125.187C125.39 59.896 125.515 59.9947 125.563 60.192L125.691 61.152ZM138.724 63.064C138.724 62.7333 138.676 62.432 138.58 62.16C138.489 61.8827 138.353 61.6453 138.172 61.448C137.996 61.2453 137.78 61.0907 137.524 60.984C137.268 60.872 136.977 60.816 136.652 60.816C135.969 60.816 135.428 61.016 135.028 61.416C134.633 61.8107 134.388 62.36 134.292 63.064H138.724ZM139.876 66.864C139.7 67.0773 139.489 67.264 139.244 67.424C138.999 67.5787 138.735 67.7067 138.452 67.808C138.175 67.9093 137.887 67.984 137.588 68.032C137.289 68.0853 136.993 68.112 136.7 68.112C136.14 68.112 135.623 68.0187 135.148 67.832C134.679 67.64 134.271 67.3627 133.924 67C133.583 66.632 133.316 66.1787 133.124 65.64C132.932 65.1013 132.836 64.4827 132.836 63.784C132.836 63.2187 132.921 62.6907 133.092 62.2C133.268 61.7093 133.519 61.2853 133.844 60.928C134.169 60.5653 134.567 60.2827 135.036 60.08C135.505 59.872 136.033 59.768 136.62 59.768C137.105 59.768 137.553 59.8507 137.964 60.016C138.38 60.176 138.737 60.4107 139.036 60.72C139.34 61.024 139.577 61.4027 139.748 61.856C139.919 62.304 140.004 62.816 140.004 63.392C140.004 63.616 139.98 63.7653 139.932 63.84C139.884 63.9147 139.793 63.952 139.66 63.952H134.244C134.26 64.464 134.329 64.9093 134.452 65.288C134.58 65.6667 134.756 65.984 134.98 66.24C135.204 66.4907 135.471 66.68 135.78 66.808C136.089 66.9307 136.436 66.992 136.82 66.992C137.177 66.992 137.484 66.952 137.74 66.872C138.001 66.7867 138.225 66.696 138.412 66.6C138.599 66.504 138.753 66.416 138.876 66.336C139.004 66.2507 139.113 66.208 139.204 66.208C139.321 66.208 139.412 66.2533 139.476 66.344L139.876 66.864ZM147.177 63.064C147.177 62.7333 147.129 62.432 147.033 62.16C146.942 61.8827 146.806 61.6453 146.625 61.448C146.449 61.2453 146.233 61.0907 145.977 60.984C145.721 60.872 145.43 60.816 145.105 60.816C144.422 60.816 143.881 61.016 143.481 61.416C143.086 61.8107 142.841 62.36 142.745 63.064H147.177ZM148.329 66.864C148.153 67.0773 147.942 67.264 147.697 67.424C147.452 67.5787 147.188 67.7067 146.905 67.808C146.628 67.9093 146.34 67.984 146.041 68.032C145.742 68.0853 145.446 68.112 145.153 68.112C144.593 68.112 144.076 68.0187 143.601 67.832C143.132 67.64 142.724 67.3627 142.377 67C142.036 66.632 141.769 66.1787 141.577 65.64C141.385 65.1013 141.289 64.4827 141.289 63.784C141.289 63.2187 141.374 62.6907 141.545 62.2C141.721 61.7093 141.972 61.2853 142.297 60.928C142.622 60.5653 143.02 60.2827 143.489 60.08C143.958 59.872 144.486 59.768 145.073 59.768C145.558 59.768 146.006 59.8507 146.417 60.016C146.833 60.176 147.19 60.4107 147.489 60.72C147.793 61.024 148.03 61.4027 148.201 61.856C148.372 62.304 148.457 62.816 148.457 63.392C148.457 63.616 148.433 63.7653 148.385 63.84C148.337 63.9147 148.246 63.952 148.113 63.952H142.697C142.713 64.464 142.782 64.9093 142.905 65.288C143.033 65.6667 143.209 65.984 143.433 66.24C143.657 66.4907 143.924 66.68 144.233 66.808C144.542 66.9307 144.889 66.992 145.273 66.992C145.63 66.992 145.937 66.952 146.193 66.872C146.454 66.7867 146.678 66.696 146.865 66.6C147.052 66.504 147.206 66.416 147.329 66.336C147.457 66.2507 147.566 66.208 147.657 66.208C147.774 66.208 147.865 66.2533 147.929 66.344L148.329 66.864ZM155.486 61.824C155.219 61.4667 154.931 61.2187 154.622 61.08C154.313 60.936 153.966 60.864 153.582 60.864C152.83 60.864 152.251 61.1333 151.846 61.672C151.441 62.2107 151.238 62.9787 151.238 63.976C151.238 64.504 151.283 64.9573 151.374 65.336C151.465 65.7093 151.598 66.0187 151.774 66.264C151.95 66.504 152.166 66.68 152.422 66.792C152.678 66.904 152.969 66.96 153.294 66.96C153.763 66.96 154.171 66.8533 154.518 66.64C154.87 66.4267 155.193 66.1253 155.486 65.736V61.824ZM156.91 56.216V68H156.062C155.859 68 155.731 67.9013 155.678 67.704L155.55 66.72C155.203 67.136 154.809 67.472 154.366 67.728C153.923 67.984 153.411 68.112 152.83 68.112C152.366 68.112 151.945 68.024 151.566 67.848C151.187 67.6667 150.865 67.4027 150.598 67.056C150.331 66.7093 150.126 66.2773 149.982 65.76C149.838 65.2427 149.766 64.648 149.766 63.976C149.766 63.3787 149.846 62.824 150.006 62.312C150.166 61.7947 150.395 61.3467 150.694 60.968C150.993 60.5893 151.358 60.2933 151.79 60.08C152.227 59.8613 152.718 59.752 153.262 59.752C153.758 59.752 154.182 59.8373 154.534 60.008C154.891 60.1733 155.209 60.4053 155.486 60.704V56.216H156.91Z" fill="#9A9A9A"/>
<defs>
<clipPath id="clip0">
<rect width="32" height="32" fill="white" transform="translate(0 2)"/>
</clipPath>
</defs>
</svg>
