<svg width="194" height="75" viewBox="0 0 194 75" fill="none" xmlns="http://www.w3.org/2000/svg">
<path d="M23.3333 23.8511C26.8 24.7833 29.3333 26.8773 29.3333 29.3333C29.3333 30.8068 26.8 32.2804 23.3333 32.954" stroke="#10375C" stroke-width="2.5" stroke-linecap="round" stroke-linejoin="round"/>
<path d="M12 23.3334C6.66669 23.3334 2.66669 26 2.66669 29.3334C2.66669 31.3334 6.66669 33.3334 12 33.3334C17.3334 33.3334 21.3334 31.3334 21.3334 29.3334C21.3334 26 17.3334 23.3334 12 23.3334Z" stroke="#10375C" stroke-width="2.5" stroke-linecap="round" stroke-linejoin="round"/>
<path d="M20 19.3334C23.3137 19.3334 26 16.6471 26 13.3334C26 10.0197 23.3137 7.33337 20 7.33337" stroke="#10375C" stroke-width="2.5" stroke-linecap="round" stroke-linejoin="round"/>
<circle cx="12" cy="13.3334" r="6" stroke="#10375C" stroke-width="2.5"/>
<path d="M57.472 32C57.472 30.784 57.6853 29.696 58.112 28.736C58.56 27.776 59.104 26.9333 59.744 26.208C60.384 25.4613 61.3013 24.5333 62.496 23.424C63.328 22.656 63.7547 22.2613 63.776 22.24C65.1413 20.9387 66.1333 19.7227 66.752 18.592C67.392 17.4613 67.712 16.3627 67.712 15.296C67.712 13.888 67.4027 12.7147 66.784 11.776C66.1867 10.816 65.184 10.336 63.776 10.336C62.9013 10.336 62.1227 10.5493 61.44 10.976C60.7573 11.4027 60.2987 11.9467 60.064 12.608C60.448 13.0133 60.64 13.4827 60.64 14.016C60.64 14.3787 60.512 14.72 60.256 15.04C60 15.36 59.6267 15.52 59.136 15.52C58.6667 15.52 58.2933 15.36 58.016 15.04C57.7387 14.6987 57.6 14.272 57.6 13.76C57.6 13.0987 57.856 12.4053 58.368 11.68C58.9013 10.9547 59.6693 10.3467 60.672 9.856C61.696 9.344 62.9013 9.088 64.288 9.088C66.208 9.088 67.808 9.55733 69.088 10.496C70.368 11.4133 71.008 12.8747 71.008 14.88C71.008 16.0107 70.5067 17.28 69.504 18.688C68.5227 20.096 66.9333 21.696 64.736 23.488C63.2427 24.7253 62.0373 25.8667 61.12 26.912C60.224 27.9573 59.7013 28.8427 59.552 29.568L65.216 29.728C65.6853 29.7493 66.3253 29.76 67.136 29.76C68.3093 29.76 69.1733 29.6107 69.728 29.312C70.2827 29.0133 70.56 28.416 70.56 27.52H71.52L71.328 32H57.472ZM83.1395 32.512C80.1742 32.512 78.0728 31.3813 76.8355 29.12C75.5982 26.8587 74.9795 24.1173 74.9795 20.896C74.9795 18.9547 75.2675 17.088 75.8435 15.296C76.4408 13.4827 77.3582 12 78.5955 10.848C79.8328 9.67467 81.3902 9.088 83.2675 9.088C85.2088 9.088 86.7768 9.664 87.9715 10.816C89.1662 11.9467 90.0195 13.3867 90.5315 15.136C91.0435 16.8853 91.2995 18.752 91.2995 20.736C91.2995 22.656 91.0115 24.512 90.4355 26.304C89.8808 28.096 88.9848 29.5787 87.7475 30.752C86.5315 31.9253 84.9955 32.512 83.1395 32.512ZM83.3315 31.264C84.9955 31.264 86.1902 30.3147 86.9155 28.416C87.6408 26.496 88.0035 24.16 88.0035 21.408C88.0035 18.336 87.6302 15.7227 86.8835 13.568C86.1582 11.392 84.9315 10.304 83.2035 10.304C81.4968 10.304 80.2488 11.2747 79.4595 13.216C78.6702 15.1573 78.2755 17.4933 78.2755 20.224C78.2755 23.0827 78.6488 25.6427 79.3955 27.904C80.1635 30.144 81.4755 31.264 83.3315 31.264ZM103.015 32.512C100.049 32.512 97.9478 31.3813 96.7105 29.12C95.4732 26.8587 94.8545 24.1173 94.8545 20.896C94.8545 18.9547 95.1425 17.088 95.7185 15.296C96.3158 13.4827 97.2332 12 98.4705 10.848C99.7078 9.67467 101.265 9.088 103.143 9.088C105.084 9.088 106.652 9.664 107.847 10.816C109.041 11.9467 109.895 13.3867 110.407 15.136C110.919 16.8853 111.175 18.752 111.175 20.736C111.175 22.656 110.887 24.512 110.311 26.304C109.756 28.096 108.86 29.5787 107.623 30.752C106.407 31.9253 104.871 32.512 103.015 32.512ZM103.207 31.264C104.871 31.264 106.065 30.3147 106.791 28.416C107.516 26.496 107.879 24.16 107.879 21.408C107.879 18.336 107.505 15.7227 106.759 13.568C106.033 11.392 104.807 10.304 103.079 10.304C101.372 10.304 100.124 11.2747 99.3345 13.216C98.5452 15.1573 98.1505 17.4933 98.1505 20.224C98.1505 23.0827 98.5238 25.6427 99.2705 27.904C100.039 30.144 101.351 31.264 103.207 31.264ZM120.138 22.784L114.058 22.816V20.896L120.138 20.928V14.624H122.218V20.928L128.298 20.96V22.752L122.218 22.784V29.376H120.138V22.784Z" fill="#10375C"/>
<path d="M65.512 65.632C65.5973 65.632 65.672 65.6667 65.736 65.736L66.352 66.4C65.8827 66.944 65.312 67.368 64.64 67.672C63.9733 67.976 63.1653 68.128 62.216 68.128C61.3947 68.128 60.648 67.9867 59.976 67.704C59.304 67.416 58.7307 67.016 58.256 66.504C57.7813 65.9867 57.4133 65.368 57.152 64.648C56.8907 63.928 56.76 63.136 56.76 62.272C56.76 61.408 56.896 60.616 57.168 59.896C57.44 59.176 57.8213 58.5573 58.312 58.04C58.808 57.5227 59.4 57.1227 60.088 56.84C60.776 56.552 61.536 56.408 62.368 56.408C63.184 56.408 63.904 56.5387 64.528 56.8C65.152 57.0613 65.7013 57.416 66.176 57.864L65.664 58.576C65.632 58.6293 65.5893 58.6747 65.536 58.712C65.488 58.744 65.4213 58.76 65.336 58.76C65.24 58.76 65.1227 58.7093 64.984 58.608C64.8453 58.5013 64.664 58.384 64.44 58.256C64.216 58.128 63.936 58.0133 63.6 57.912C63.264 57.8053 62.8507 57.752 62.36 57.752C61.768 57.752 61.2267 57.856 60.736 58.064C60.2453 58.2667 59.8213 58.5627 59.464 58.952C59.112 59.3413 58.8373 59.816 58.64 60.376C58.4427 60.936 58.344 61.568 58.344 62.272C58.344 62.9867 58.4453 63.624 58.648 64.184C58.856 64.744 59.136 65.2187 59.488 65.608C59.8453 65.992 60.264 66.2853 60.744 66.488C61.2293 66.6907 61.752 66.792 62.312 66.792C62.6533 66.792 62.96 66.7733 63.232 66.736C63.5093 66.6933 63.7627 66.6293 63.992 66.544C64.2267 66.4587 64.4427 66.352 64.64 66.224C64.8427 66.0907 65.0427 65.9333 65.24 65.752C65.3307 65.672 65.4213 65.632 65.512 65.632ZM71.0753 59.768C71.6673 59.768 72.2006 59.8667 72.6753 60.064C73.1499 60.2613 73.5553 60.5413 73.8913 60.904C74.2273 61.2667 74.4833 61.7067 74.6593 62.224C74.8406 62.736 74.9313 63.3093 74.9313 63.944C74.9313 64.584 74.8406 65.16 74.6593 65.672C74.4833 66.184 74.2273 66.6213 73.8913 66.984C73.5553 67.3467 73.1499 67.6267 72.6753 67.824C72.2006 68.016 71.6673 68.112 71.0753 68.112C70.4779 68.112 69.9393 68.016 69.4593 67.824C68.9846 67.6267 68.5793 67.3467 68.2433 66.984C67.9073 66.6213 67.6486 66.184 67.4673 65.672C67.2913 65.16 67.2033 64.584 67.2033 63.944C67.2033 63.3093 67.2913 62.736 67.4673 62.224C67.6486 61.7067 67.9073 61.2667 68.2433 60.904C68.5793 60.5413 68.9846 60.2613 69.4593 60.064C69.9393 59.8667 70.4779 59.768 71.0753 59.768ZM71.0753 67C71.8753 67 72.4726 66.7333 72.8673 66.2C73.2619 65.6613 73.4593 64.912 73.4593 63.952C73.4593 62.9867 73.2619 62.2347 72.8673 61.696C72.4726 61.1573 71.8753 60.888 71.0753 60.888C70.6699 60.888 70.3153 60.9573 70.0113 61.096C69.7126 61.2347 69.4619 61.4347 69.2593 61.696C69.0619 61.9573 68.9126 62.28 68.8113 62.664C68.7153 63.0427 68.6673 63.472 68.6673 63.952C68.6673 64.912 68.8646 65.6613 69.2593 66.2C69.6593 66.7333 70.2646 67 71.0753 67ZM76.7374 68V59.896H77.5934C77.796 59.896 77.9214 59.9947 77.9694 60.192L78.0734 61.024C78.372 60.656 78.708 60.3547 79.0814 60.12C79.4547 59.8853 79.8867 59.768 80.3774 59.768C80.9214 59.768 81.3614 59.92 81.6974 60.224C82.0387 60.528 82.284 60.9387 82.4334 61.456C82.5507 61.1627 82.7 60.9093 82.8814 60.696C83.068 60.4827 83.276 60.3067 83.5054 60.168C83.7347 60.0293 83.9774 59.928 84.2334 59.864C84.4947 59.8 84.7587 59.768 85.0254 59.768C85.452 59.768 85.8307 59.8373 86.1614 59.976C86.4974 60.1093 86.78 60.3067 87.0094 60.568C87.244 60.8293 87.4227 61.152 87.5454 61.536C87.668 61.9147 87.7294 62.3493 87.7294 62.84V68H86.2974V62.84C86.2974 62.2053 86.1587 61.7253 85.8814 61.4C85.604 61.0693 85.204 60.904 84.6814 60.904C84.4467 60.904 84.2227 60.9467 84.0094 61.032C83.8014 61.112 83.6174 61.232 83.4574 61.392C83.2974 61.552 83.1694 61.7547 83.0734 62C82.9827 62.24 82.9374 62.52 82.9374 62.84V68H81.5054V62.84C81.5054 62.1893 81.3747 61.704 81.1134 61.384C80.852 61.064 80.4707 60.904 79.9694 60.904C79.6174 60.904 79.292 61 78.9934 61.192C78.6947 61.3787 78.42 61.6347 78.1694 61.96V68H76.7374ZM89.8936 68V59.896H90.7496C90.9523 59.896 91.0776 59.9947 91.1256 60.192L91.2296 61.024C91.5283 60.656 91.8643 60.3547 92.2376 60.12C92.611 59.8853 93.043 59.768 93.5336 59.768C94.0776 59.768 94.5176 59.92 94.8536 60.224C95.195 60.528 95.4403 60.9387 95.5896 61.456C95.707 61.1627 95.8563 60.9093 96.0376 60.696C96.2243 60.4827 96.4323 60.3067 96.6616 60.168C96.891 60.0293 97.1336 59.928 97.3896 59.864C97.651 59.8 97.915 59.768 98.1816 59.768C98.6083 59.768 98.987 59.8373 99.3176 59.976C99.6536 60.1093 99.9363 60.3067 100.166 60.568C100.4 60.8293 100.579 61.152 100.702 61.536C100.824 61.9147 100.886 62.3493 100.886 62.84V68H99.4536V62.84C99.4536 62.2053 99.315 61.7253 99.0376 61.4C98.7603 61.0693 98.3603 60.904 97.8376 60.904C97.603 60.904 97.379 60.9467 97.1656 61.032C96.9576 61.112 96.7736 61.232 96.6136 61.392C96.4536 61.552 96.3256 61.7547 96.2296 62C96.139 62.24 96.0936 62.52 96.0936 62.84V68H94.6616V62.84C94.6616 62.1893 94.531 61.704 94.2696 61.384C94.0083 61.064 93.627 60.904 93.1256 60.904C92.7736 60.904 92.4483 61 92.1496 61.192C91.851 61.3787 91.5763 61.6347 91.3256 61.96V68H89.8936ZM109.714 59.896V68H108.866C108.663 68 108.535 67.9013 108.482 67.704L108.37 66.832C108.018 67.2213 107.623 67.536 107.186 67.776C106.749 68.0107 106.247 68.128 105.682 68.128C105.239 68.128 104.847 68.056 104.506 67.912C104.17 67.7627 103.887 67.5547 103.658 67.288C103.429 67.0213 103.255 66.6987 103.138 66.32C103.026 65.9413 102.97 65.5227 102.97 65.064V59.896H104.394V65.064C104.394 65.6773 104.533 66.152 104.81 66.488C105.093 66.824 105.522 66.992 106.098 66.992C106.519 66.992 106.911 66.8933 107.274 66.696C107.642 66.4933 107.981 66.216 108.29 65.864V59.896H109.714ZM113.316 61.072C113.492 60.8747 113.678 60.696 113.876 60.536C114.073 60.376 114.281 60.24 114.5 60.128C114.724 60.0107 114.958 59.9227 115.204 59.864C115.454 59.8 115.724 59.768 116.012 59.768C116.454 59.768 116.844 59.8427 117.18 59.992C117.521 60.136 117.804 60.344 118.028 60.616C118.257 60.8827 118.43 61.2053 118.548 61.584C118.665 61.9627 118.724 62.3813 118.724 62.84V68H117.292V62.84C117.292 62.2267 117.15 61.752 116.868 61.416C116.59 61.0747 116.166 60.904 115.596 60.904C115.174 60.904 114.78 61.0053 114.412 61.208C114.049 61.4107 113.713 61.6853 113.404 62.032V68H111.972V59.896H112.828C113.03 59.896 113.156 59.9947 113.204 60.192L113.316 61.072ZM122.398 59.896V68H120.974V59.896H122.398ZM122.702 57.352C122.702 57.4907 122.672 57.6213 122.614 57.744C122.56 57.8613 122.486 57.968 122.39 58.064C122.299 58.1547 122.19 58.2267 122.062 58.28C121.939 58.3333 121.808 58.36 121.67 58.36C121.531 58.36 121.4 58.3333 121.278 58.28C121.16 58.2267 121.056 58.1547 120.966 58.064C120.875 57.968 120.803 57.8613 120.75 57.744C120.696 57.6213 120.67 57.4907 120.67 57.352C120.67 57.2133 120.696 57.0827 120.75 56.96C120.803 56.832 120.875 56.7227 120.966 56.632C121.056 56.536 121.16 56.4613 121.278 56.408C121.4 56.3547 121.531 56.328 121.67 56.328C121.808 56.328 121.939 56.3547 122.062 56.408C122.19 56.4613 122.299 56.536 122.39 56.632C122.486 56.7227 122.56 56.832 122.614 56.96C122.672 57.0827 122.702 57.2133 122.702 57.352ZM132.257 68H130.833V61.088H126.657V65.952C126.657 66.2933 126.74 66.5467 126.905 66.712C127.071 66.8773 127.284 66.96 127.545 66.96C127.695 66.96 127.823 66.9413 127.929 66.904C128.041 66.8613 128.137 66.816 128.217 66.768C128.297 66.72 128.364 66.6773 128.417 66.64C128.476 66.5973 128.527 66.576 128.569 66.576C128.644 66.576 128.711 66.6213 128.769 66.712L129.185 67.392C128.94 67.6213 128.644 67.8027 128.297 67.936C127.951 68.064 127.593 68.128 127.225 68.128C126.585 68.128 126.092 67.9493 125.745 67.592C125.404 67.2347 125.233 66.72 125.233 66.048V61.088H124.257C124.172 61.088 124.1 61.064 124.041 61.016C123.983 60.9627 123.953 60.8827 123.953 60.776V60.208L125.281 60.032L125.609 57.536C125.625 57.456 125.66 57.392 125.713 57.344C125.772 57.2907 125.847 57.264 125.937 57.264H126.657V60.056H132.257V68ZM132.609 57.296C132.609 57.4347 132.58 57.5653 132.521 57.688C132.468 57.8053 132.393 57.9093 132.297 58C132.207 58.0907 132.1 58.1627 131.977 58.216C131.855 58.2693 131.724 58.296 131.585 58.296C131.447 58.296 131.316 58.2693 131.193 58.216C131.076 58.1627 130.972 58.0907 130.881 58C130.791 57.9093 130.719 57.8053 130.665 57.688C130.612 57.5653 130.585 57.4347 130.585 57.296C130.585 57.1573 130.612 57.0267 130.665 56.904C130.719 56.776 130.791 56.6667 130.881 56.576C130.972 56.48 131.076 56.4053 131.193 56.352C131.316 56.2987 131.447 56.272 131.585 56.272C131.724 56.272 131.855 56.2987 131.977 56.352C132.1 56.4053 132.207 56.48 132.297 56.576C132.393 56.6667 132.468 56.776 132.521 56.904C132.58 57.0267 132.609 57.1573 132.609 57.296ZM140.021 63.064C140.021 62.7333 139.973 62.432 139.877 62.16C139.786 61.8827 139.65 61.6453 139.469 61.448C139.293 61.2453 139.077 61.0907 138.821 60.984C138.565 60.872 138.274 60.816 137.949 60.816C137.266 60.816 136.725 61.016 136.325 61.416C135.93 61.8107 135.685 62.36 135.589 63.064H140.021ZM141.173 66.864C140.997 67.0773 140.786 67.264 140.541 67.424C140.295 67.5787 140.031 67.7067 139.749 67.808C139.471 67.9093 139.183 67.984 138.885 68.032C138.586 68.0853 138.29 68.112 137.997 68.112C137.437 68.112 136.919 68.0187 136.445 67.832C135.975 67.64 135.567 67.3627 135.221 67C134.879 66.632 134.613 66.1787 134.421 65.64C134.229 65.1013 134.133 64.4827 134.133 63.784C134.133 63.2187 134.218 62.6907 134.389 62.2C134.565 61.7093 134.815 61.2853 135.141 60.928C135.466 60.5653 135.863 60.2827 136.333 60.08C136.802 59.872 137.33 59.768 137.917 59.768C138.402 59.768 138.85 59.8507 139.261 60.016C139.677 60.176 140.034 60.4107 140.333 60.72C140.637 61.024 140.874 61.4027 141.045 61.856C141.215 62.304 141.301 62.816 141.301 63.392C141.301 63.616 141.277 63.7653 141.229 63.84C141.181 63.9147 141.09 63.952 140.957 63.952H135.541C135.557 64.464 135.626 64.9093 135.749 65.288C135.877 65.6667 136.053 65.984 136.277 66.24C136.501 66.4907 136.767 66.68 137.077 66.808C137.386 66.9307 137.733 66.992 138.117 66.992C138.474 66.992 138.781 66.952 139.037 66.872C139.298 66.7867 139.522 66.696 139.709 66.6C139.895 66.504 140.05 66.416 140.173 66.336C140.301 66.2507 140.41 66.208 140.501 66.208C140.618 66.208 140.709 66.2533 140.773 66.344L141.173 66.864ZM147.77 61.232C147.706 61.3493 147.607 61.408 147.474 61.408C147.394 61.408 147.303 61.3787 147.202 61.32C147.101 61.2613 146.975 61.1973 146.826 61.128C146.682 61.0533 146.509 60.9867 146.306 60.928C146.103 60.864 145.863 60.832 145.586 60.832C145.346 60.832 145.13 60.864 144.938 60.928C144.746 60.9867 144.581 61.0693 144.442 61.176C144.309 61.2827 144.205 61.408 144.13 61.552C144.061 61.6907 144.026 61.8427 144.026 62.008C144.026 62.216 144.085 62.3893 144.202 62.528C144.325 62.6667 144.485 62.7867 144.682 62.888C144.879 62.9893 145.103 63.08 145.354 63.16C145.605 63.2347 145.861 63.3173 146.122 63.408C146.389 63.4933 146.647 63.5893 146.898 63.696C147.149 63.8027 147.373 63.936 147.57 64.096C147.767 64.256 147.925 64.4533 148.042 64.688C148.165 64.9173 148.226 65.1947 148.226 65.52C148.226 65.8933 148.159 66.24 148.026 66.56C147.893 66.8747 147.695 67.1493 147.434 67.384C147.173 67.6133 146.853 67.7947 146.474 67.928C146.095 68.0613 145.658 68.128 145.162 68.128C144.597 68.128 144.085 68.0373 143.626 67.856C143.167 67.6693 142.778 67.432 142.458 67.144L142.794 66.6C142.837 66.5307 142.887 66.4773 142.946 66.44C143.005 66.4027 143.079 66.384 143.17 66.384C143.266 66.384 143.367 66.4213 143.474 66.496C143.581 66.5707 143.709 66.6533 143.858 66.744C144.013 66.8347 144.199 66.9173 144.418 66.992C144.637 67.0667 144.909 67.104 145.234 67.104C145.511 67.104 145.754 67.0693 145.962 67C146.17 66.9253 146.343 66.8267 146.482 66.704C146.621 66.5813 146.722 66.44 146.786 66.28C146.855 66.12 146.89 65.9493 146.89 65.768C146.89 65.544 146.829 65.36 146.706 65.216C146.589 65.0667 146.431 64.9413 146.234 64.84C146.037 64.7333 145.81 64.6427 145.554 64.568C145.303 64.488 145.045 64.4053 144.778 64.32C144.517 64.2347 144.258 64.1387 144.002 64.032C143.751 63.92 143.527 63.7813 143.33 63.616C143.133 63.4507 142.973 63.248 142.85 63.008C142.733 62.7627 142.674 62.4667 142.674 62.12C142.674 61.8107 142.738 61.5147 142.866 61.232C142.994 60.944 143.181 60.6933 143.426 60.48C143.671 60.2613 143.973 60.088 144.33 59.96C144.687 59.832 145.095 59.768 145.554 59.768C146.087 59.768 146.565 59.8533 146.986 60.024C147.413 60.1893 147.781 60.4187 148.09 60.712L147.77 61.232ZM155.57 59.896V68H154.146V59.896H155.57ZM155.874 57.352C155.874 57.4907 155.844 57.6213 155.786 57.744C155.732 57.8613 155.658 57.968 155.562 58.064C155.471 58.1547 155.362 58.2267 155.234 58.28C155.111 58.3333 154.98 58.36 154.842 58.36C154.703 58.36 154.572 58.3333 154.45 58.28C154.332 58.2267 154.228 58.1547 154.138 58.064C154.047 57.968 153.975 57.8613 153.922 57.744C153.868 57.6213 153.842 57.4907 153.842 57.352C153.842 57.2133 153.868 57.0827 153.922 56.96C153.975 56.832 154.047 56.7227 154.138 56.632C154.228 56.536 154.332 56.4613 154.45 56.408C154.572 56.3547 154.703 56.328 154.842 56.328C154.98 56.328 155.111 56.3547 155.234 56.408C155.362 56.4613 155.471 56.536 155.562 56.632C155.658 56.7227 155.732 56.832 155.786 56.96C155.844 57.0827 155.874 57.2133 155.874 57.352ZM159.253 61.072C159.429 60.8747 159.616 60.696 159.813 60.536C160.011 60.376 160.219 60.24 160.437 60.128C160.661 60.0107 160.896 59.9227 161.141 59.864C161.392 59.8 161.661 59.768 161.949 59.768C162.392 59.768 162.781 59.8427 163.117 59.992C163.459 60.136 163.741 60.344 163.965 60.616C164.195 60.8827 164.368 61.2053 164.485 61.584C164.603 61.9627 164.661 62.3813 164.661 62.84V68H163.229V62.84C163.229 62.2267 163.088 61.752 162.805 61.416C162.528 61.0747 162.104 60.904 161.533 60.904C161.112 60.904 160.717 61.0053 160.349 61.208C159.987 61.4107 159.651 61.6853 159.341 62.032V68H157.909V59.896H158.765C158.968 59.896 159.093 59.9947 159.141 60.192L159.253 61.072ZM171.551 61.232C171.487 61.3493 171.388 61.408 171.255 61.408C171.175 61.408 171.084 61.3787 170.983 61.32C170.882 61.2613 170.756 61.1973 170.607 61.128C170.463 61.0533 170.29 60.9867 170.087 60.928C169.884 60.864 169.644 60.832 169.367 60.832C169.127 60.832 168.911 60.864 168.719 60.928C168.527 60.9867 168.362 61.0693 168.223 61.176C168.09 61.2827 167.986 61.408 167.911 61.552C167.842 61.6907 167.807 61.8427 167.807 62.008C167.807 62.216 167.866 62.3893 167.983 62.528C168.106 62.6667 168.266 62.7867 168.463 62.888C168.66 62.9893 168.884 63.08 169.135 63.16C169.386 63.2347 169.642 63.3173 169.903 63.408C170.17 63.4933 170.428 63.5893 170.679 63.696C170.93 63.8027 171.154 63.936 171.351 64.096C171.548 64.256 171.706 64.4533 171.823 64.688C171.946 64.9173 172.007 65.1947 172.007 65.52C172.007 65.8933 171.94 66.24 171.807 66.56C171.674 66.8747 171.476 67.1493 171.215 67.384C170.954 67.6133 170.634 67.7947 170.255 67.928C169.876 68.0613 169.439 68.128 168.943 68.128C168.378 68.128 167.866 68.0373 167.407 67.856C166.948 67.6693 166.559 67.432 166.239 67.144L166.575 66.6C166.618 66.5307 166.668 66.4773 166.727 66.44C166.786 66.4027 166.86 66.384 166.951 66.384C167.047 66.384 167.148 66.4213 167.255 66.496C167.362 66.5707 167.49 66.6533 167.639 66.744C167.794 66.8347 167.98 66.9173 168.199 66.992C168.418 67.0667 168.69 67.104 169.015 67.104C169.292 67.104 169.535 67.0693 169.743 67C169.951 66.9253 170.124 66.8267 170.263 66.704C170.402 66.5813 170.503 66.44 170.567 66.28C170.636 66.12 170.671 65.9493 170.671 65.768C170.671 65.544 170.61 65.36 170.487 65.216C170.37 65.0667 170.212 64.9413 170.015 64.84C169.818 64.7333 169.591 64.6427 169.335 64.568C169.084 64.488 168.826 64.4053 168.559 64.32C168.298 64.2347 168.039 64.1387 167.783 64.032C167.532 63.92 167.308 63.7813 167.111 63.616C166.914 63.4507 166.754 63.248 166.631 63.008C166.514 62.7627 166.455 62.4667 166.455 62.12C166.455 61.8107 166.519 61.5147 166.647 61.232C166.775 60.944 166.962 60.6933 167.207 60.48C167.452 60.2613 167.754 60.088 168.111 59.96C168.468 59.832 168.876 59.768 169.335 59.768C169.868 59.768 170.346 59.8533 170.767 60.024C171.194 60.1893 171.562 60.4187 171.871 60.712L171.551 61.232ZM175.257 59.896V68H173.833V59.896H175.257ZM175.561 57.352C175.561 57.4907 175.532 57.6213 175.473 57.744C175.42 57.8613 175.345 57.968 175.249 58.064C175.158 58.1547 175.049 58.2267 174.921 58.28C174.798 58.3333 174.668 58.36 174.529 58.36C174.39 58.36 174.26 58.3333 174.137 58.28C174.02 58.2267 173.916 58.1547 173.825 58.064C173.734 57.968 173.662 57.8613 173.609 57.744C173.556 57.6213 173.529 57.4907 173.529 57.352C173.529 57.2133 173.556 57.0827 173.609 56.96C173.662 56.832 173.734 56.7227 173.825 56.632C173.916 56.536 174.02 56.4613 174.137 56.408C174.26 56.3547 174.39 56.328 174.529 56.328C174.668 56.328 174.798 56.3547 174.921 56.408C175.049 56.4613 175.158 56.536 175.249 56.632C175.345 56.7227 175.42 56.832 175.473 56.96C175.532 57.0827 175.561 57.2133 175.561 57.352ZM182.877 61.824C182.61 61.4667 182.322 61.2187 182.013 61.08C181.703 60.936 181.357 60.864 180.973 60.864C180.221 60.864 179.642 61.1333 179.237 61.672C178.831 62.2107 178.629 62.9787 178.629 63.976C178.629 64.504 178.674 64.9573 178.765 65.336C178.855 65.7093 178.989 66.0187 179.165 66.264C179.341 66.504 179.557 66.68 179.813 66.792C180.069 66.904 180.359 66.96 180.685 66.96C181.154 66.96 181.562 66.8533 181.909 66.64C182.261 66.4267 182.583 66.1253 182.877 65.736V61.824ZM184.301 56.216V68H183.453C183.25 68 183.122 67.9013 183.069 67.704L182.941 66.72C182.594 67.136 182.199 67.472 181.757 67.728C181.314 67.984 180.802 68.112 180.221 68.112C179.757 68.112 179.335 68.024 178.957 67.848C178.578 67.6667 178.255 67.4027 177.989 67.056C177.722 66.7093 177.517 66.2773 177.373 65.76C177.229 65.2427 177.157 64.648 177.157 63.976C177.157 63.3787 177.237 62.824 177.397 62.312C177.557 61.7947 177.786 61.3467 178.085 60.968C178.383 60.5893 178.749 60.2933 179.181 60.08C179.618 59.8613 180.109 59.752 180.653 59.752C181.149 59.752 181.573 59.8373 181.925 60.008C182.282 60.1733 182.599 60.4053 182.877 60.704V56.216H184.301ZM191.974 63.064C191.974 62.7333 191.926 62.432 191.83 62.16C191.739 61.8827 191.603 61.6453 191.422 61.448C191.246 61.2453 191.03 61.0907 190.774 60.984C190.518 60.872 190.227 60.816 189.902 60.816C189.219 60.816 188.678 61.016 188.278 61.416C187.883 61.8107 187.638 62.36 187.542 63.064H191.974ZM193.126 66.864C192.95 67.0773 192.739 67.264 192.494 67.424C192.249 67.5787 191.985 67.7067 191.702 67.808C191.425 67.9093 191.137 67.984 190.838 68.032C190.539 68.0853 190.243 68.112 189.95 68.112C189.39 68.112 188.873 68.0187 188.398 67.832C187.929 67.64 187.521 67.3627 187.174 67C186.833 66.632 186.566 66.1787 186.374 65.64C186.182 65.1013 186.086 64.4827 186.086 63.784C186.086 63.2187 186.171 62.6907 186.342 62.2C186.518 61.7093 186.769 61.2853 187.094 60.928C187.419 60.5653 187.817 60.2827 188.286 60.08C188.755 59.872 189.283 59.768 189.87 59.768C190.355 59.768 190.803 59.8507 191.214 60.016C191.63 60.176 191.987 60.4107 192.286 60.72C192.59 61.024 192.827 61.4027 192.998 61.856C193.169 62.304 193.254 62.816 193.254 63.392C193.254 63.616 193.23 63.7653 193.182 63.84C193.134 63.9147 193.043 63.952 192.91 63.952H187.494C187.51 64.464 187.579 64.9093 187.702 65.288C187.83 65.6667 188.006 65.984 188.23 66.24C188.454 66.4907 188.721 66.68 189.03 66.808C189.339 66.9307 189.686 66.992 190.07 66.992C190.427 66.992 190.734 66.952 190.99 66.872C191.251 66.7867 191.475 66.696 191.662 66.6C191.849 66.504 192.003 66.416 192.126 66.336C192.254 66.2507 192.363 66.208 192.454 66.208C192.571 66.208 192.662 66.2533 192.726 66.344L193.126 66.864Z" fill="#9A9A9A"/>
</svg>
