<svg width="171" height="75" viewBox="0 0 171 75" fill="none" xmlns="http://www.w3.org/2000/svg">
<path d="M36.25 11.5C38.3179 11.5 40 9.81787 40 7.75C40 5.68213 38.3179 4 36.25 4C34.1821 4 32.5 5.68213 32.5 7.75C32.5 9.81787 34.1821 11.5 36.25 11.5ZM36.25 6.5C36.9392 6.5 37.5 7.06079 37.5 7.75C37.5 8.43921 36.9392 9 36.25 9C35.5608 9 35 8.43921 35 7.75C35 7.06079 35.5608 6.5 36.25 6.5ZM11.75 11.5C13.8179 11.5 15.5 9.81787 15.5 7.75C15.5 5.68213 13.8179 4 11.75 4C9.68213 4 8 5.68213 8 7.75C8 9.81787 9.68213 11.5 11.75 11.5ZM11.75 6.5C12.4392 6.5 13 7.06079 13 7.75C13 8.43921 12.4392 9 11.75 9C11.0608 9 10.5 8.43921 10.5 7.75C10.5 7.06079 11.0608 6.5 11.75 6.5ZM36.2695 12.6875C36.2634 12.6875 36.2573 12.6875 36.2512 12.6875C33.6638 12.6875 32.6829 14.5713 32.0647 16.4153C31.8545 17.0425 31.3982 18.4128 31.0986 19.3125H29.625V16.4375C29.625 14.3696 27.9429 12.6875 25.875 12.6875H22.125C20.0571 12.6875 18.375 14.3696 18.375 16.4375V19.3125H16.9014C16.6018 18.4128 16.1455 17.0425 15.9353 16.4153C15.3169 14.5713 14.3364 12.6875 11.7488 12.6875C11.7427 12.6875 11.7363 12.6875 11.7302 12.6875C9.67334 12.6946 8 14.377 8 16.4375V23.25C8 24.8796 9.04517 26.269 10.5 26.7849V26.8125C10.5322 26.8125 10.5637 26.8149 10.5955 26.8174C10.7346 26.8625 10.8772 26.8999 11.0229 26.9287C11.4514 27.127 11.75 27.5601 11.75 28.0625V36H14.25V28.0625C14.25 27.6936 14.1956 27.3372 14.0957 27H15.5625C16.2517 27 16.8125 27.5608 16.8125 28.25V36H19.3125V28.25C19.3125 26.1821 17.6304 24.5 15.5625 24.5H11.75C11.7178 24.5 11.6863 24.4976 11.6545 24.4951C11.5154 24.45 11.3728 24.4126 11.2271 24.3838C10.7986 24.1855 10.5 23.7524 10.5 23.25V16.4375C10.5 15.7507 11.0559 15.1899 11.739 15.1875C12.304 15.1855 12.8855 15.1836 13.5647 17.2097C13.8894 18.1782 14.8047 20.9294 14.814 20.957L15.0984 21.8125H32.9016L33.186 20.957C33.1953 20.9294 34.1106 18.1782 34.4353 17.2097C35.1143 15.1836 35.696 15.1863 36.261 15.1875C36.9441 15.1899 37.5 15.7507 37.5 16.4375V23.25C37.5 23.7524 37.2014 24.1855 36.7729 24.3838C36.6272 24.4126 36.4846 24.45 36.3455 24.4951C36.3137 24.4976 36.2822 24.5 36.25 24.5H32.5C30.4321 24.5 28.75 26.1821 28.75 28.25V36H31.25V28.25C31.25 27.5608 31.8108 27 32.5 27H33.9043C33.8044 27.3372 33.75 27.6936 33.75 28.0625V36H36.25V28.0625C36.25 27.5601 36.5486 27.127 36.9771 26.9287C37.1228 26.8999 37.2654 26.8625 37.4045 26.8174C37.4363 26.8149 37.4678 26.8125 37.5 26.8125V26.7849C38.9548 26.269 40 24.8796 40 23.25V16.4375C40 14.377 38.3267 12.6946 36.2695 12.6875ZM20.875 16.4375C20.875 15.7483 21.4358 15.1875 22.125 15.1875H25.875C26.5642 15.1875 27.125 15.7483 27.125 16.4375V19.3125H20.875V16.4375ZM24 11.5C26.0679 11.5 27.75 9.81787 27.75 7.75C27.75 5.68213 26.0679 4 24 4C21.9321 4 20.25 5.68213 20.25 7.75C20.25 9.81787 21.9321 11.5 24 11.5ZM24 6.5C24.6892 6.5 25.25 7.06079 25.25 7.75C25.25 8.43921 24.6892 9 24 9C23.3108 9 22.75 8.43921 22.75 7.75C22.75 7.06079 23.3108 6.5 24 6.5Z" fill="#10375C"/>
<path d="M72.128 32.512C70.848 32.512 69.7067 32.288 68.704 31.84C67.7227 31.392 66.9653 30.8373 66.432 30.176C65.92 29.4933 65.664 28.8213 65.664 28.16C65.664 27.648 65.8027 27.232 66.08 26.912C66.3573 26.5707 66.7413 26.4 67.232 26.4C67.7227 26.4 68.0747 26.56 68.288 26.88C68.5227 27.1787 68.64 27.4987 68.64 27.84C68.64 28.2027 68.5227 28.6187 68.288 29.088C68.416 29.792 68.864 30.336 69.632 30.72C70.4 31.0827 71.2107 31.264 72.064 31.264C73.5787 31.264 74.72 30.7413 75.488 29.696C76.2773 28.6507 76.672 27.3707 76.672 25.856C76.672 21.6533 75.0187 19.552 71.712 19.552C71.1147 19.552 70.3893 19.6587 69.536 19.872C68.6827 20.0853 68 20.352 67.488 20.672L66.592 19.84L66.528 9.6H74.816C76.0107 9.6 76.8427 9.44 77.312 9.12C77.7813 8.8 78.016 8.26667 78.016 7.52H78.88L78.688 11.744L68 11.968V19.008C68.5973 18.752 69.3013 18.5387 70.112 18.368C70.944 18.1973 71.7867 18.112 72.64 18.112C74.304 18.112 75.68 18.4533 76.768 19.136C77.8773 19.8187 78.688 20.704 79.2 21.792C79.7333 22.88 80 24.0427 80 25.28C80 26.7947 79.6373 28.1067 78.912 29.216C78.208 30.304 77.2587 31.1253 76.064 31.68C74.8693 32.2347 73.5573 32.512 72.128 32.512ZM91.3583 32.512C88.3929 32.512 86.2916 31.3813 85.0543 29.12C83.8169 26.8587 83.1983 24.1173 83.1983 20.896C83.1983 18.9547 83.4863 17.088 84.0623 15.296C84.6596 13.4827 85.5769 12 86.8143 10.848C88.0516 9.67467 89.6089 9.088 91.4863 9.088C93.4276 9.088 94.9956 9.664 96.1903 10.816C97.3849 11.9467 98.2383 13.3867 98.7503 15.136C99.2623 16.8853 99.5183 18.752 99.5183 20.736C99.5183 22.656 99.2303 24.512 98.6543 26.304C98.0996 28.096 97.2036 29.5787 95.9663 30.752C94.7503 31.9253 93.2143 32.512 91.3583 32.512ZM91.5503 31.264C93.2143 31.264 94.4089 30.3147 95.1343 28.416C95.8596 26.496 96.2223 24.16 96.2223 21.408C96.2223 18.336 95.8489 15.7227 95.1023 13.568C94.3769 11.392 93.1503 10.304 91.4223 10.304C89.7156 10.304 88.4676 11.2747 87.6783 13.216C86.8889 15.1573 86.4943 17.4933 86.4943 20.224C86.4943 23.0827 86.8676 25.6427 87.6143 27.904C88.3823 30.144 89.6943 31.264 91.5503 31.264ZM111.233 32.512C108.268 32.512 106.167 31.3813 104.929 29.12C103.692 26.8587 103.073 24.1173 103.073 20.896C103.073 18.9547 103.361 17.088 103.937 15.296C104.535 13.4827 105.452 12 106.689 10.848C107.927 9.67467 109.484 9.088 111.361 9.088C113.303 9.088 114.871 9.664 116.065 10.816C117.26 11.9467 118.113 13.3867 118.625 15.136C119.137 16.8853 119.393 18.752 119.393 20.736C119.393 22.656 119.105 24.512 118.529 26.304C117.975 28.096 117.079 29.5787 115.841 30.752C114.625 31.9253 113.089 32.512 111.233 32.512ZM111.425 31.264C113.089 31.264 114.284 30.3147 115.009 28.416C115.735 26.496 116.097 24.16 116.097 21.408C116.097 18.336 115.724 15.7227 114.977 13.568C114.252 11.392 113.025 10.304 111.297 10.304C109.591 10.304 108.343 11.2747 107.553 13.216C106.764 15.1573 106.369 17.4933 106.369 20.224C106.369 23.0827 106.743 25.6427 107.489 27.904C108.257 30.144 109.569 31.264 111.425 31.264ZM128.356 22.784L122.276 22.816V20.896L128.356 20.928V14.624H130.436V20.928L136.516 20.96V22.752L130.436 22.784V29.376H128.356V22.784Z" fill="#10375C"/>
<path d="M77.392 56.536V68H76.032V59.576C76.032 59.464 76.0347 59.344 76.04 59.216C76.0507 59.088 76.0613 58.9573 76.072 58.824L72.136 65.992C72.0133 66.232 71.8267 66.352 71.576 66.352H71.352C71.1013 66.352 70.9147 66.232 70.792 65.992L66.776 58.792C66.808 59.0747 66.824 59.336 66.824 59.576V68H65.464V56.536H66.608C66.7467 56.536 66.8533 56.5493 66.928 56.576C67.0027 56.6027 67.0747 56.6773 67.144 56.8L71.104 63.856C71.168 63.984 71.2293 64.1173 71.288 64.256C71.352 64.3947 71.4107 64.536 71.464 64.68C71.5173 64.536 71.5733 64.3947 71.632 64.256C71.6907 64.112 71.7547 63.976 71.824 63.848L75.712 56.8C75.776 56.6773 75.8453 56.6027 75.92 56.576C76 56.5493 76.1093 56.536 76.248 56.536H77.392ZM85.1614 63.064C85.1614 62.7333 85.1134 62.432 85.0174 62.16C84.9267 61.8827 84.7907 61.6453 84.6094 61.448C84.4334 61.2453 84.2174 61.0907 83.9614 60.984C83.7054 60.872 83.4147 60.816 83.0894 60.816C82.4067 60.816 81.8654 61.016 81.4654 61.416C81.0707 61.8107 80.8254 62.36 80.7294 63.064H85.1614ZM86.3134 66.864C86.1374 67.0773 85.9267 67.264 85.6814 67.424C85.436 67.5787 85.172 67.7067 84.8894 67.808C84.612 67.9093 84.324 67.984 84.0254 68.032C83.7267 68.0853 83.4307 68.112 83.1374 68.112C82.5774 68.112 82.06 68.0187 81.5854 67.832C81.116 67.64 80.708 67.3627 80.3614 67C80.02 66.632 79.7534 66.1787 79.5614 65.64C79.3694 65.1013 79.2734 64.4827 79.2734 63.784C79.2734 63.2187 79.3587 62.6907 79.5294 62.2C79.7054 61.7093 79.956 61.2853 80.2814 60.928C80.6067 60.5653 81.004 60.2827 81.4734 60.08C81.9427 59.872 82.4707 59.768 83.0574 59.768C83.5427 59.768 83.9907 59.8507 84.4014 60.016C84.8174 60.176 85.1747 60.4107 85.4734 60.72C85.7774 61.024 86.0147 61.4027 86.1854 61.856C86.356 62.304 86.4414 62.816 86.4414 63.392C86.4414 63.616 86.4174 63.7653 86.3694 63.84C86.3214 63.9147 86.2307 63.952 86.0974 63.952H80.6814C80.6974 64.464 80.7667 64.9093 80.8894 65.288C81.0174 65.6667 81.1934 65.984 81.4174 66.24C81.6414 66.4907 81.908 66.68 82.2174 66.808C82.5267 66.9307 82.8734 66.992 83.2574 66.992C83.6147 66.992 83.9214 66.952 84.1774 66.872C84.4387 66.7867 84.6627 66.696 84.8494 66.6C85.036 66.504 85.1907 66.416 85.3134 66.336C85.4414 66.2507 85.5507 66.208 85.6414 66.208C85.7587 66.208 85.8494 66.2533 85.9134 66.344L86.3134 66.864ZM93.6145 63.064C93.6145 62.7333 93.5665 62.432 93.4705 62.16C93.3798 61.8827 93.2438 61.6453 93.0625 61.448C92.8865 61.2453 92.6705 61.0907 92.4145 60.984C92.1585 60.872 91.8678 60.816 91.5425 60.816C90.8598 60.816 90.3185 61.016 89.9185 61.416C89.5238 61.8107 89.2785 62.36 89.1825 63.064H93.6145ZM94.7665 66.864C94.5905 67.0773 94.3798 67.264 94.1345 67.424C93.8892 67.5787 93.6252 67.7067 93.3425 67.808C93.0652 67.9093 92.7772 67.984 92.4785 68.032C92.1798 68.0853 91.8838 68.112 91.5905 68.112C91.0305 68.112 90.5132 68.0187 90.0385 67.832C89.5692 67.64 89.1612 67.3627 88.8145 67C88.4732 66.632 88.2065 66.1787 88.0145 65.64C87.8225 65.1013 87.7265 64.4827 87.7265 63.784C87.7265 63.2187 87.8118 62.6907 87.9825 62.2C88.1585 61.7093 88.4092 61.2853 88.7345 60.928C89.0598 60.5653 89.4572 60.2827 89.9265 60.08C90.3958 59.872 90.9238 59.768 91.5105 59.768C91.9958 59.768 92.4438 59.8507 92.8545 60.016C93.2705 60.176 93.6278 60.4107 93.9265 60.72C94.2305 61.024 94.4678 61.4027 94.6385 61.856C94.8092 62.304 94.8945 62.816 94.8945 63.392C94.8945 63.616 94.8705 63.7653 94.8225 63.84C94.7745 63.9147 94.6838 63.952 94.5505 63.952H89.1345C89.1505 64.464 89.2198 64.9093 89.3425 65.288C89.4705 65.6667 89.6465 65.984 89.8705 66.24C90.0945 66.4907 90.3612 66.68 90.6705 66.808C90.9798 66.9307 91.3265 66.992 91.7105 66.992C92.0678 66.992 92.3745 66.952 92.6305 66.872C92.8918 66.7867 93.1158 66.696 93.3025 66.6C93.4892 66.504 93.6438 66.416 93.7665 66.336C93.8945 66.2507 94.0038 66.208 94.0945 66.208C94.2118 66.208 94.3025 66.2533 94.3665 66.344L94.7665 66.864ZM104.101 68H102.677V61.088H98.5011V65.952C98.5011 66.2933 98.5838 66.5467 98.7491 66.712C98.9145 66.8773 99.1278 66.96 99.3891 66.96C99.5385 66.96 99.6665 66.9413 99.7731 66.904C99.8851 66.8613 99.9811 66.816 100.061 66.768C100.141 66.72 100.208 66.6773 100.261 66.64C100.32 66.5973 100.37 66.576 100.413 66.576C100.488 66.576 100.554 66.6213 100.613 66.712L101.029 67.392C100.784 67.6213 100.488 67.8027 100.141 67.936C99.7945 68.064 99.4371 68.128 99.0691 68.128C98.4291 68.128 97.9358 67.9493 97.5891 67.592C97.2478 67.2347 97.0771 66.72 97.0771 66.048V61.088H96.1011C96.0158 61.088 95.9438 61.064 95.8851 61.016C95.8265 60.9627 95.7971 60.8827 95.7971 60.776V60.208L97.1251 60.032L97.4531 57.536C97.4691 57.456 97.5038 57.392 97.5571 57.344C97.6158 57.2907 97.6905 57.264 97.7811 57.264H98.5011V60.056H104.101V68ZM104.453 57.296C104.453 57.4347 104.424 57.5653 104.365 57.688C104.312 57.8053 104.237 57.9093 104.141 58C104.05 58.0907 103.944 58.1627 103.821 58.216C103.698 58.2693 103.568 58.296 103.429 58.296C103.29 58.296 103.16 58.2693 103.037 58.216C102.92 58.1627 102.816 58.0907 102.725 58C102.634 57.9093 102.562 57.8053 102.509 57.688C102.456 57.5653 102.429 57.4347 102.429 57.296C102.429 57.1573 102.456 57.0267 102.509 56.904C102.562 56.776 102.634 56.6667 102.725 56.576C102.816 56.48 102.92 56.4053 103.037 56.352C103.16 56.2987 103.29 56.272 103.429 56.272C103.568 56.272 103.698 56.2987 103.821 56.352C103.944 56.4053 104.05 56.48 104.141 56.576C104.237 56.6667 104.312 56.776 104.365 56.904C104.424 57.0267 104.453 57.1573 104.453 57.296ZM107.785 61.072C107.961 60.8747 108.147 60.696 108.345 60.536C108.542 60.376 108.75 60.24 108.969 60.128C109.193 60.0107 109.427 59.9227 109.673 59.864C109.923 59.8 110.193 59.768 110.481 59.768C110.923 59.768 111.313 59.8427 111.649 59.992C111.99 60.136 112.273 60.344 112.497 60.616C112.726 60.8827 112.899 61.2053 113.017 61.584C113.134 61.9627 113.193 62.3813 113.193 62.84V68H111.761V62.84C111.761 62.2267 111.619 61.752 111.337 61.416C111.059 61.0747 110.635 60.904 110.065 60.904C109.643 60.904 109.249 61.0053 108.881 61.208C108.518 61.4107 108.182 61.6853 107.873 62.032V68H106.441V59.896H107.297C107.499 59.896 107.625 59.9947 107.673 60.192L107.785 61.072ZM118.186 64.04C118.474 64.04 118.728 64 118.946 63.92C119.165 63.84 119.349 63.728 119.498 63.584C119.648 63.44 119.76 63.2693 119.834 63.072C119.909 62.8693 119.946 62.648 119.946 62.408C119.946 61.912 119.794 61.5173 119.49 61.224C119.192 60.9307 118.757 60.784 118.186 60.784C117.61 60.784 117.17 60.9307 116.866 61.224C116.568 61.5173 116.418 61.912 116.418 62.408C116.418 62.648 116.456 62.8693 116.53 63.072C116.61 63.2693 116.725 63.44 116.874 63.584C117.024 63.728 117.208 63.84 117.426 63.92C117.645 64 117.898 64.04 118.186 64.04ZM120.754 68.44C120.754 68.2427 120.698 68.0827 120.586 67.96C120.474 67.8373 120.322 67.7413 120.13 67.672C119.944 67.6027 119.725 67.5547 119.474 67.528C119.224 67.496 118.957 67.472 118.674 67.456C118.397 67.44 118.114 67.424 117.826 67.408C117.538 67.392 117.261 67.3653 116.994 67.328C116.696 67.4667 116.45 67.6427 116.258 67.856C116.072 68.064 115.978 68.3093 115.978 68.592C115.978 68.7733 116.024 68.9413 116.114 69.096C116.21 69.256 116.354 69.392 116.546 69.504C116.738 69.6213 116.978 69.712 117.266 69.776C117.56 69.8453 117.904 69.88 118.298 69.88C118.682 69.88 119.026 69.8453 119.33 69.776C119.634 69.7067 119.89 69.608 120.098 69.48C120.312 69.352 120.474 69.2 120.586 69.024C120.698 68.848 120.754 68.6533 120.754 68.44ZM122.202 60.216V60.744C122.202 60.92 122.09 61.032 121.866 61.08L120.946 61.2C121.128 61.552 121.218 61.9413 121.218 62.368C121.218 62.7627 121.141 63.1227 120.986 63.448C120.837 63.768 120.629 64.0427 120.362 64.272C120.096 64.5013 119.776 64.6773 119.402 64.8C119.029 64.9227 118.624 64.984 118.186 64.984C117.808 64.984 117.45 64.9387 117.114 64.848C116.944 64.9547 116.813 65.0693 116.722 65.192C116.632 65.3093 116.586 65.4293 116.586 65.552C116.586 65.744 116.664 65.8907 116.818 65.992C116.978 66.088 117.186 66.1573 117.442 66.2C117.698 66.2427 117.989 66.2693 118.314 66.28C118.645 66.2907 118.981 66.3093 119.322 66.336C119.669 66.3573 120.005 66.3973 120.33 66.456C120.661 66.5147 120.954 66.6107 121.21 66.744C121.466 66.8773 121.672 67.0613 121.826 67.296C121.986 67.5307 122.066 67.8347 122.066 68.208C122.066 68.5547 121.978 68.8907 121.802 69.216C121.632 69.5413 121.384 69.8293 121.058 70.08C120.733 70.336 120.333 70.5387 119.858 70.688C119.389 70.8427 118.858 70.92 118.266 70.92C117.674 70.92 117.157 70.8613 116.714 70.744C116.272 70.6267 115.904 70.4693 115.61 70.272C115.317 70.0747 115.096 69.8453 114.946 69.584C114.802 69.328 114.73 69.0587 114.73 68.776C114.73 68.376 114.856 68.0373 115.106 67.76C115.357 67.4827 115.701 67.2613 116.138 67.096C115.898 66.9893 115.706 66.848 115.562 66.672C115.424 66.4907 115.354 66.248 115.354 65.944C115.354 65.8267 115.376 65.7067 115.418 65.584C115.461 65.456 115.525 65.3307 115.61 65.208C115.701 65.08 115.81 64.96 115.938 64.848C116.066 64.736 116.216 64.6373 116.386 64.552C115.986 64.328 115.674 64.032 115.45 63.664C115.226 63.2907 115.114 62.8587 115.114 62.368C115.114 61.9733 115.189 61.616 115.338 61.296C115.493 60.9707 115.706 60.696 115.978 60.472C116.25 60.2427 116.573 60.0667 116.946 59.944C117.325 59.8213 117.738 59.76 118.186 59.76C118.538 59.76 118.866 59.8 119.17 59.88C119.474 59.9547 119.752 60.0667 120.002 60.216H122.202ZM129.121 61.52C129.377 60.9653 129.691 60.5333 130.065 60.224C130.438 59.9093 130.894 59.752 131.433 59.752C131.603 59.752 131.766 59.7707 131.921 59.808C132.081 59.8453 132.222 59.904 132.345 59.984L132.241 61.048C132.209 61.1813 132.129 61.248 132.001 61.248C131.926 61.248 131.817 61.232 131.673 61.2C131.529 61.168 131.366 61.152 131.185 61.152C130.929 61.152 130.699 61.1893 130.497 61.264C130.299 61.3387 130.121 61.4507 129.961 61.6C129.806 61.744 129.665 61.9253 129.537 62.144C129.414 62.3573 129.302 62.6027 129.201 62.88V68H127.769V59.896H128.585C128.739 59.896 128.846 59.9253 128.905 59.984C128.963 60.0427 129.003 60.144 129.025 60.288L129.121 61.52ZM136.685 59.768C137.277 59.768 137.81 59.8667 138.285 60.064C138.759 60.2613 139.165 60.5413 139.501 60.904C139.837 61.2667 140.093 61.7067 140.269 62.224C140.45 62.736 140.541 63.3093 140.541 63.944C140.541 64.584 140.45 65.16 140.269 65.672C140.093 66.184 139.837 66.6213 139.501 66.984C139.165 67.3467 138.759 67.6267 138.285 67.824C137.81 68.016 137.277 68.112 136.685 68.112C136.087 68.112 135.549 68.016 135.069 67.824C134.594 67.6267 134.189 67.3467 133.853 66.984C133.517 66.6213 133.258 66.184 133.077 65.672C132.901 65.16 132.813 64.584 132.813 63.944C132.813 63.3093 132.901 62.736 133.077 62.224C133.258 61.7067 133.517 61.2667 133.853 60.904C134.189 60.5413 134.594 60.2613 135.069 60.064C135.549 59.8667 136.087 59.768 136.685 59.768ZM136.685 67C137.485 67 138.082 66.7333 138.477 66.2C138.871 65.6613 139.069 64.912 139.069 63.952C139.069 62.9867 138.871 62.2347 138.477 61.696C138.082 61.1573 137.485 60.888 136.685 60.888C136.279 60.888 135.925 60.9573 135.621 61.096C135.322 61.2347 135.071 61.4347 134.869 61.696C134.671 61.9573 134.522 62.28 134.421 62.664C134.325 63.0427 134.277 63.472 134.277 63.952C134.277 64.912 134.474 65.6613 134.869 66.2C135.269 66.7333 135.874 67 136.685 67ZM145.763 59.768C146.355 59.768 146.888 59.8667 147.363 60.064C147.837 60.2613 148.243 60.5413 148.579 60.904C148.915 61.2667 149.171 61.7067 149.347 62.224C149.528 62.736 149.619 63.3093 149.619 63.944C149.619 64.584 149.528 65.16 149.347 65.672C149.171 66.184 148.915 66.6213 148.579 66.984C148.243 67.3467 147.837 67.6267 147.363 67.824C146.888 68.016 146.355 68.112 145.763 68.112C145.165 68.112 144.627 68.016 144.147 67.824C143.672 67.6267 143.267 67.3467 142.931 66.984C142.595 66.6213 142.336 66.184 142.155 65.672C141.979 65.16 141.891 64.584 141.891 63.944C141.891 63.3093 141.979 62.736 142.155 62.224C142.336 61.7067 142.595 61.2667 142.931 60.904C143.267 60.5413 143.672 60.2613 144.147 60.064C144.627 59.8667 145.165 59.768 145.763 59.768ZM145.763 67C146.563 67 147.16 66.7333 147.555 66.2C147.949 65.6613 148.147 64.912 148.147 63.952C148.147 62.9867 147.949 62.2347 147.555 61.696C147.16 61.1573 146.563 60.888 145.763 60.888C145.357 60.888 145.003 60.9573 144.699 61.096C144.4 61.2347 144.149 61.4347 143.947 61.696C143.749 61.9573 143.6 62.28 143.499 62.664C143.403 63.0427 143.355 63.472 143.355 63.952C143.355 64.912 143.552 65.6613 143.947 66.2C144.347 66.7333 144.952 67 145.763 67ZM151.425 68V59.896H152.281C152.484 59.896 152.609 59.9947 152.657 60.192L152.761 61.024C153.06 60.656 153.396 60.3547 153.769 60.12C154.142 59.8853 154.574 59.768 155.065 59.768C155.609 59.768 156.049 59.92 156.385 60.224C156.726 60.528 156.972 60.9387 157.121 61.456C157.238 61.1627 157.388 60.9093 157.569 60.696C157.756 60.4827 157.964 60.3067 158.193 60.168C158.422 60.0293 158.665 59.928 158.921 59.864C159.182 59.8 159.446 59.768 159.713 59.768C160.14 59.768 160.518 59.8373 160.849 59.976C161.185 60.1093 161.468 60.3067 161.697 60.568C161.932 60.8293 162.11 61.152 162.233 61.536C162.356 61.9147 162.417 62.3493 162.417 62.84V68H160.985V62.84C160.985 62.2053 160.846 61.7253 160.569 61.4C160.292 61.0693 159.892 60.904 159.369 60.904C159.134 60.904 158.91 60.9467 158.697 61.032C158.489 61.112 158.305 61.232 158.145 61.392C157.985 61.552 157.857 61.7547 157.761 62C157.67 62.24 157.625 62.52 157.625 62.84V68H156.193V62.84C156.193 62.1893 156.062 61.704 155.801 61.384C155.54 61.064 155.158 60.904 154.657 60.904C154.305 60.904 153.98 61 153.681 61.192C153.382 61.3787 153.108 61.6347 152.857 61.96V68H151.425ZM169.301 61.232C169.237 61.3493 169.138 61.408 169.005 61.408C168.925 61.408 168.834 61.3787 168.733 61.32C168.632 61.2613 168.506 61.1973 168.357 61.128C168.213 61.0533 168.04 60.9867 167.837 60.928C167.634 60.864 167.394 60.832 167.117 60.832C166.877 60.832 166.661 60.864 166.469 60.928C166.277 60.9867 166.112 61.0693 165.973 61.176C165.84 61.2827 165.736 61.408 165.661 61.552C165.592 61.6907 165.557 61.8427 165.557 62.008C165.557 62.216 165.616 62.3893 165.733 62.528C165.856 62.6667 166.016 62.7867 166.213 62.888C166.41 62.9893 166.634 63.08 166.885 63.16C167.136 63.2347 167.392 63.3173 167.653 63.408C167.92 63.4933 168.178 63.5893 168.429 63.696C168.68 63.8027 168.904 63.936 169.101 64.096C169.298 64.256 169.456 64.4533 169.573 64.688C169.696 64.9173 169.757 65.1947 169.757 65.52C169.757 65.8933 169.69 66.24 169.557 66.56C169.424 66.8747 169.226 67.1493 168.965 67.384C168.704 67.6133 168.384 67.7947 168.005 67.928C167.626 68.0613 167.189 68.128 166.693 68.128C166.128 68.128 165.616 68.0373 165.157 67.856C164.698 67.6693 164.309 67.432 163.989 67.144L164.325 66.6C164.368 66.5307 164.418 66.4773 164.477 66.44C164.536 66.4027 164.61 66.384 164.701 66.384C164.797 66.384 164.898 66.4213 165.005 66.496C165.112 66.5707 165.24 66.6533 165.389 66.744C165.544 66.8347 165.73 66.9173 165.949 66.992C166.168 67.0667 166.44 67.104 166.765 67.104C167.042 67.104 167.285 67.0693 167.493 67C167.701 66.9253 167.874 66.8267 168.013 66.704C168.152 66.5813 168.253 66.44 168.317 66.28C168.386 66.12 168.421 65.9493 168.421 65.768C168.421 65.544 168.36 65.36 168.237 65.216C168.12 65.0667 167.962 64.9413 167.765 64.84C167.568 64.7333 167.341 64.6427 167.085 64.568C166.834 64.488 166.576 64.4053 166.309 64.32C166.048 64.2347 165.789 64.1387 165.533 64.032C165.282 63.92 165.058 63.7813 164.861 63.616C164.664 63.4507 164.504 63.248 164.381 63.008C164.264 62.7627 164.205 62.4667 164.205 62.12C164.205 61.8107 164.269 61.5147 164.397 61.232C164.525 60.944 164.712 60.6933 164.957 60.48C165.202 60.2613 165.504 60.088 165.861 59.96C166.218 59.832 166.626 59.768 167.085 59.768C167.618 59.768 168.096 59.8533 168.517 60.024C168.944 60.1893 169.312 60.4187 169.621 60.712L169.301 61.232Z" fill="#9A9A9A"/>
</svg>
