<svg width="147" height="75" viewBox="0 0 147 75" fill="none" xmlns="http://www.w3.org/2000/svg">
<path d="M30.282 33.7914V24.8491C31.3179 23.9862 31.9786 22.6874 31.9786 21.2369V19.1192L16.9378 10.7484V9.54187H22.3521V4.33362H15.0628V10.7486L0 19.1188V21.2369C0 22.6978 0.67 24.005 1.71869 24.8678V33.7914H0.000625V35.6663H32V33.7914L30.282 33.7914ZM16.9378 6.20856H20.4771V7.66687H16.9378V6.20856ZM29.2571 19.7504H24.1628L19.5001 14.3201L29.2571 19.7504ZM16.9268 14.2014L21.6916 19.7504H16.9268V14.2014ZM22.5511 21.6253C22.3613 23.0002 21.1784 24.0624 19.7523 24.0624C18.3259 24.0624 17.1431 23.0002 16.9534 21.6253H22.5511ZM10.3048 19.7504L15.0518 14.2067V19.7504H10.3048ZM15.0251 21.6253C14.8354 23.0002 13.6525 24.0624 12.2263 24.0624C10.8 24.0624 9.61719 23.0002 9.42744 21.6253H15.0251ZM12.4776 14.3301L7.83625 19.7504H2.7235L12.4776 14.3301ZM1.90156 21.6253H7.49919C7.30944 23.0002 6.12656 24.0624 4.70038 24.0624C3.27419 24.0624 2.09131 23.0002 1.90156 21.6253ZM7.59869 33.7914H3.59369V25.8046C3.94887 25.8906 4.31919 25.9374 4.70044 25.9374C6.23787 25.9374 7.60525 25.1953 8.46338 24.0507C9.3215 25.1954 10.6888 25.9374 12.2264 25.9374C13.199 25.9374 14.1034 25.6404 14.854 25.1325C14.6313 26.2642 14.2332 27.3601 13.6708 28.3725C12.7602 30.0119 11.4373 31.4022 9.84513 32.3932L7.59869 33.7914ZM11.1362 33.7914C12.8642 32.648 14.3029 31.0961 15.31 29.283C15.5706 28.8137 15.8008 28.329 16.0004 27.8326C16.2 28.3289 16.4301 28.8137 16.6908 29.283C17.6979 31.096 19.1366 32.648 20.8646 33.7914H11.1362ZM28.407 33.7914H24.4019L22.1555 32.3932C20.5634 31.4022 19.2404 30.0119 18.3298 28.3725C17.7701 27.3649 17.3733 26.2749 17.1501 25.149C17.8957 25.6466 18.7905 25.9374 19.7522 25.9374C21.2896 25.9374 22.657 25.1953 23.5151 24.0507C24.3732 25.1954 25.7406 25.9374 27.2781 25.9374C27.6672 25.9374 28.0451 25.889 28.407 25.7994V33.7914ZM27.2781 24.0624C25.8518 24.0624 24.669 23.0002 24.4792 21.6254H30.0769C29.8872 23.0002 28.7044 24.0624 27.2781 24.0624Z" fill="#10375C"/>
<path d="M58.368 30.944C59.4133 30.9013 60.1387 30.5813 60.544 29.984C60.9493 29.3867 61.152 28.4907 61.152 27.296L61.12 12.192H61.056L57.216 14.656L56.576 13.728L62.816 9.088H63.904L63.936 28.512C63.936 29.5787 63.904 30.3147 63.84 30.72L66.528 30.592V32H58.368V30.944ZM77.6083 32.512C74.6429 32.512 72.5416 31.3813 71.3043 29.12C70.0669 26.8587 69.4483 24.1173 69.4483 20.896C69.4483 18.9547 69.7363 17.088 70.3123 15.296C70.9096 13.4827 71.8269 12 73.0643 10.848C74.3016 9.67467 75.8589 9.088 77.7363 9.088C79.6776 9.088 81.2456 9.664 82.4403 10.816C83.6349 11.9467 84.4883 13.3867 85.0003 15.136C85.5123 16.8853 85.7683 18.752 85.7683 20.736C85.7683 22.656 85.4803 24.512 84.9043 26.304C84.3496 28.096 83.4536 29.5787 82.2163 30.752C81.0003 31.9253 79.4643 32.512 77.6083 32.512ZM77.8003 31.264C79.4643 31.264 80.6589 30.3147 81.3843 28.416C82.1096 26.496 82.4723 24.16 82.4723 21.408C82.4723 18.336 82.0989 15.7227 81.3523 13.568C80.6269 11.392 79.4003 10.304 77.6723 10.304C75.9656 10.304 74.7176 11.2747 73.9283 13.216C73.1389 15.1573 72.7443 17.4933 72.7443 20.224C72.7443 23.0827 73.1176 25.6427 73.8643 27.904C74.6323 30.144 75.9443 31.264 77.8003 31.264ZM97.4833 32.512C94.5179 32.512 92.4166 31.3813 91.1793 29.12C89.9419 26.8587 89.3233 24.1173 89.3233 20.896C89.3233 18.9547 89.6113 17.088 90.1873 15.296C90.7846 13.4827 91.7019 12 92.9393 10.848C94.1766 9.67467 95.7339 9.088 97.6113 9.088C99.5526 9.088 101.121 9.664 102.315 10.816C103.51 11.9467 104.363 13.3867 104.875 15.136C105.387 16.8853 105.643 18.752 105.643 20.736C105.643 22.656 105.355 24.512 104.779 26.304C104.225 28.096 103.329 29.5787 102.091 30.752C100.875 31.9253 99.3393 32.512 97.4833 32.512ZM97.6753 31.264C99.3393 31.264 100.534 30.3147 101.259 28.416C101.985 26.496 102.347 24.16 102.347 21.408C102.347 18.336 101.974 15.7227 101.227 13.568C100.502 11.392 99.2753 10.304 97.5473 10.304C95.8406 10.304 94.5926 11.2747 93.8033 13.216C93.0139 15.1573 92.6193 17.4933 92.6193 20.224C92.6193 23.0827 92.9926 25.6427 93.7393 27.904C94.5073 30.144 95.8193 31.264 97.6753 31.264ZM114.606 22.784L108.526 22.816V20.896L114.606 20.928V14.624H116.686V20.928L122.766 20.96V22.752L116.686 22.784V29.376H114.606V22.784Z" fill="#10375C"/>
<path d="M64.536 66.736L64.528 68H57.464V56.536H64.528V57.8H59.016V61.608H63.48V62.824H59.016V66.736H64.536ZM72.9314 59.896L69.6274 68H68.3474L65.0434 59.896H66.2034C66.3207 59.896 66.4167 59.9253 66.4914 59.984C66.566 60.0427 66.6167 60.112 66.6434 60.192L68.6994 65.408C68.7634 65.6053 68.8194 65.7973 68.8674 65.984C68.9154 66.1707 68.9607 66.3573 69.0034 66.544C69.046 66.3573 69.0914 66.1707 69.1394 65.984C69.1874 65.7973 69.246 65.6053 69.3154 65.408L71.3954 60.192C71.4274 60.1067 71.4807 60.0373 71.5554 59.984C71.63 59.9253 71.718 59.896 71.8194 59.896H72.9314ZM79.4426 63.064C79.4426 62.7333 79.3946 62.432 79.2986 62.16C79.208 61.8827 79.072 61.6453 78.8906 61.448C78.7146 61.2453 78.4986 61.0907 78.2426 60.984C77.9866 60.872 77.696 60.816 77.3706 60.816C76.688 60.816 76.1466 61.016 75.7466 61.416C75.352 61.8107 75.1066 62.36 75.0106 63.064H79.4426ZM80.5946 66.864C80.4186 67.0773 80.208 67.264 79.9626 67.424C79.7173 67.5787 79.4533 67.7067 79.1706 67.808C78.8933 67.9093 78.6053 67.984 78.3066 68.032C78.008 68.0853 77.712 68.112 77.4186 68.112C76.8586 68.112 76.3413 68.0187 75.8666 67.832C75.3973 67.64 74.9893 67.3627 74.6426 67C74.3013 66.632 74.0346 66.1787 73.8426 65.64C73.6506 65.1013 73.5546 64.4827 73.5546 63.784C73.5546 63.2187 73.64 62.6907 73.8106 62.2C73.9866 61.7093 74.2373 61.2853 74.5626 60.928C74.888 60.5653 75.2853 60.2827 75.7546 60.08C76.224 59.872 76.752 59.768 77.3386 59.768C77.824 59.768 78.272 59.8507 78.6826 60.016C79.0986 60.176 79.456 60.4107 79.7546 60.72C80.0586 61.024 80.296 61.4027 80.4666 61.856C80.6373 62.304 80.7226 62.816 80.7226 63.392C80.7226 63.616 80.6986 63.7653 80.6506 63.84C80.6026 63.9147 80.512 63.952 80.3786 63.952H74.9626C74.9786 64.464 75.048 64.9093 75.1706 65.288C75.2986 65.6667 75.4746 65.984 75.6986 66.24C75.9226 66.4907 76.1893 66.68 76.4986 66.808C76.808 66.9307 77.1546 66.992 77.5386 66.992C77.896 66.992 78.2026 66.952 78.4586 66.872C78.72 66.7867 78.944 66.696 79.1306 66.6C79.3173 66.504 79.472 66.416 79.5946 66.336C79.7226 66.2507 79.832 66.208 79.9226 66.208C80.04 66.208 80.1306 66.2533 80.1946 66.344L80.5946 66.864ZM83.8158 61.072C83.9918 60.8747 84.1784 60.696 84.3758 60.536C84.5731 60.376 84.7811 60.24 84.9998 60.128C85.2238 60.0107 85.4584 59.9227 85.7038 59.864C85.9544 59.8 86.2238 59.768 86.5118 59.768C86.9544 59.768 87.3438 59.8427 87.6798 59.992C88.0211 60.136 88.3038 60.344 88.5278 60.616C88.7571 60.8827 88.9304 61.2053 89.0478 61.584C89.1651 61.9627 89.2238 62.3813 89.2238 62.84V68H87.7918V62.84C87.7918 62.2267 87.6504 61.752 87.3678 61.416C87.0904 61.0747 86.6664 60.904 86.0958 60.904C85.6744 60.904 85.2798 61.0053 84.9118 61.208C84.5491 61.4107 84.2131 61.6853 83.9038 62.032V68H82.4718V59.896H83.3278C83.5304 59.896 83.6558 59.9947 83.7038 60.192L83.8158 61.072ZM93.7723 68.128C93.1323 68.128 92.6389 67.9493 92.2923 67.592C91.9509 67.2347 91.7803 66.72 91.7803 66.048V61.088H90.8043C90.7189 61.088 90.6469 61.064 90.5883 61.016C90.5296 60.9627 90.5003 60.8827 90.5003 60.776V60.208L91.8283 60.04L92.1562 57.536C92.1723 57.456 92.2069 57.392 92.2603 57.344C92.3189 57.2907 92.3936 57.264 92.4843 57.264H93.2043V60.056H95.5483V61.088H93.2043V65.952C93.2043 66.2933 93.2869 66.5467 93.4523 66.712C93.6176 66.8773 93.8309 66.96 94.0923 66.96C94.2416 66.96 94.3696 66.9413 94.4763 66.904C94.5883 66.8613 94.6843 66.816 94.7643 66.768C94.8443 66.72 94.9109 66.6773 94.9643 66.64C95.0229 66.5973 95.0736 66.576 95.1163 66.576C95.1909 66.576 95.2576 66.6213 95.3163 66.712L95.7323 67.392C95.4869 67.6213 95.1909 67.8027 94.8443 67.936C94.4976 68.064 94.1403 68.128 93.7723 68.128ZM105.832 61.232C105.768 61.3493 105.67 61.408 105.536 61.408C105.456 61.408 105.366 61.3787 105.264 61.32C105.163 61.2613 105.038 61.1973 104.888 61.128C104.744 61.0533 104.571 60.9867 104.368 60.928C104.166 60.864 103.926 60.832 103.648 60.832C103.408 60.832 103.192 60.864 103 60.928C102.808 60.9867 102.643 61.0693 102.504 61.176C102.371 61.2827 102.267 61.408 102.192 61.552C102.123 61.6907 102.088 61.8427 102.088 62.008C102.088 62.216 102.147 62.3893 102.264 62.528C102.387 62.6667 102.547 62.7867 102.744 62.888C102.942 62.9893 103.166 63.08 103.416 63.16C103.667 63.2347 103.923 63.3173 104.184 63.408C104.451 63.4933 104.71 63.5893 104.96 63.696C105.211 63.8027 105.435 63.936 105.632 64.096C105.83 64.256 105.987 64.4533 106.104 64.688C106.227 64.9173 106.288 65.1947 106.288 65.52C106.288 65.8933 106.222 66.24 106.088 66.56C105.955 66.8747 105.758 67.1493 105.496 67.384C105.235 67.6133 104.915 67.7947 104.536 67.928C104.158 68.0613 103.72 68.128 103.224 68.128C102.659 68.128 102.147 68.0373 101.688 67.856C101.23 67.6693 100.84 67.432 100.52 67.144L100.856 66.6C100.899 66.5307 100.95 66.4773 101.008 66.44C101.067 66.4027 101.142 66.384 101.232 66.384C101.328 66.384 101.43 66.4213 101.536 66.496C101.643 66.5707 101.771 66.6533 101.92 66.744C102.075 66.8347 102.262 66.9173 102.48 66.992C102.699 67.0667 102.971 67.104 103.296 67.104C103.574 67.104 103.816 67.0693 104.024 67C104.232 66.9253 104.406 66.8267 104.544 66.704C104.683 66.5813 104.784 66.44 104.848 66.28C104.918 66.12 104.952 65.9493 104.952 65.768C104.952 65.544 104.891 65.36 104.768 65.216C104.651 65.0667 104.494 64.9413 104.296 64.84C104.099 64.7333 103.872 64.6427 103.616 64.568C103.366 64.488 103.107 64.4053 102.84 64.32C102.579 64.2347 102.32 64.1387 102.064 64.032C101.814 63.92 101.59 63.7813 101.392 63.616C101.195 63.4507 101.035 63.248 100.912 63.008C100.795 62.7627 100.736 62.4667 100.736 62.12C100.736 61.8107 100.8 61.5147 100.928 61.232C101.056 60.944 101.243 60.6933 101.488 60.48C101.734 60.2613 102.035 60.088 102.392 59.96C102.75 59.832 103.158 59.768 103.616 59.768C104.15 59.768 104.627 59.8533 105.048 60.024C105.475 60.1893 105.843 60.4187 106.152 60.712L105.832 61.232ZM109.466 66.048C109.728 66.4 110.013 66.648 110.322 66.792C110.632 66.936 110.978 67.008 111.362 67.008C112.12 67.008 112.701 66.7387 113.106 66.2C113.512 65.6613 113.714 64.8933 113.714 63.896C113.714 63.368 113.666 62.9147 113.57 62.536C113.48 62.1573 113.346 61.848 113.17 61.608C112.994 61.3627 112.778 61.184 112.522 61.072C112.266 60.96 111.976 60.904 111.65 60.904C111.186 60.904 110.778 61.0107 110.426 61.224C110.08 61.4373 109.76 61.7387 109.466 62.128V66.048ZM109.394 61.152C109.736 60.7307 110.13 60.392 110.578 60.136C111.026 59.88 111.538 59.752 112.114 59.752C112.584 59.752 113.008 59.8427 113.386 60.024C113.765 60.2 114.088 60.464 114.354 60.816C114.621 61.1627 114.826 61.5947 114.97 62.112C115.114 62.6293 115.186 63.224 115.186 63.896C115.186 64.4933 115.106 65.0507 114.946 65.568C114.786 66.08 114.554 66.5253 114.25 66.904C113.952 67.2773 113.584 67.5733 113.146 67.792C112.714 68.0053 112.226 68.112 111.682 68.112C111.186 68.112 110.76 68.0293 110.402 67.864C110.05 67.6933 109.738 67.4587 109.466 67.16V70.744H108.034V59.896H108.89C109.093 59.896 109.218 59.9947 109.266 60.192L109.394 61.152ZM121.395 64.352C120.739 64.3733 120.179 64.4267 119.715 64.512C119.256 64.592 118.88 64.6987 118.587 64.832C118.299 64.9653 118.088 65.1227 117.955 65.304C117.827 65.4853 117.763 65.688 117.763 65.912C117.763 66.1253 117.798 66.3093 117.867 66.464C117.936 66.6187 118.03 66.7467 118.147 66.848C118.27 66.944 118.411 67.016 118.571 67.064C118.736 67.1067 118.912 67.128 119.099 67.128C119.35 67.128 119.579 67.104 119.787 67.056C119.995 67.0027 120.19 66.928 120.371 66.832C120.558 66.736 120.734 66.6213 120.899 66.488C121.07 66.3547 121.235 66.2027 121.395 66.032V64.352ZM116.795 61.04C117.243 60.608 117.726 60.2853 118.243 60.072C118.76 59.8587 119.334 59.752 119.963 59.752C120.416 59.752 120.819 59.8267 121.171 59.976C121.523 60.1253 121.819 60.3333 122.059 60.6C122.299 60.8667 122.48 61.1893 122.603 61.568C122.726 61.9467 122.787 62.3627 122.787 62.816V68H122.155C122.016 68 121.91 67.9787 121.835 67.936C121.76 67.888 121.702 67.7973 121.659 67.664L121.499 66.896C121.286 67.0933 121.078 67.2693 120.875 67.424C120.672 67.5733 120.459 67.7013 120.235 67.808C120.011 67.9093 119.771 67.9867 119.515 68.04C119.264 68.0987 118.984 68.128 118.675 68.128C118.36 68.128 118.064 68.0853 117.787 68C117.51 67.9093 117.267 67.776 117.059 67.6C116.856 67.424 116.694 67.2027 116.571 66.936C116.454 66.664 116.395 66.344 116.395 65.976C116.395 65.656 116.483 65.3493 116.659 65.056C116.835 64.7573 117.12 64.4933 117.515 64.264C117.91 64.0347 118.424 63.848 119.059 63.704C119.694 63.5547 120.472 63.4693 121.395 63.448V62.816C121.395 62.1867 121.259 61.712 120.987 61.392C120.715 61.0667 120.318 60.904 119.795 60.904C119.443 60.904 119.147 60.9493 118.907 61.04C118.672 61.1253 118.467 61.224 118.291 61.336C118.12 61.4427 117.971 61.5413 117.843 61.632C117.72 61.7173 117.598 61.76 117.475 61.76C117.379 61.76 117.296 61.736 117.227 61.688C117.158 61.6347 117.099 61.5707 117.051 61.496L116.795 61.04ZM130.596 61.336C130.553 61.3947 130.511 61.44 130.468 61.472C130.425 61.504 130.367 61.52 130.292 61.52C130.212 61.52 130.124 61.488 130.028 61.424C129.932 61.3547 129.812 61.28 129.668 61.2C129.529 61.12 129.356 61.048 129.148 60.984C128.945 60.9147 128.695 60.88 128.396 60.88C127.996 60.88 127.644 60.952 127.34 61.096C127.036 61.2347 126.78 61.4373 126.572 61.704C126.369 61.9707 126.215 62.2933 126.108 62.672C126.007 63.0507 125.956 63.4747 125.956 63.944C125.956 64.4347 126.012 64.872 126.124 65.256C126.236 65.6347 126.393 65.9547 126.596 66.216C126.804 66.472 127.052 66.6693 127.34 66.808C127.633 66.9413 127.961 67.008 128.324 67.008C128.671 67.008 128.956 66.968 129.18 66.888C129.404 66.8027 129.588 66.7093 129.732 66.608C129.881 66.5067 130.004 66.416 130.1 66.336C130.201 66.2507 130.3 66.208 130.396 66.208C130.513 66.208 130.604 66.2533 130.668 66.344L131.068 66.864C130.892 67.0827 130.692 67.2693 130.468 67.424C130.244 67.5787 130.001 67.7093 129.74 67.816C129.484 67.9173 129.215 67.992 128.932 68.04C128.649 68.088 128.361 68.112 128.068 68.112C127.561 68.112 127.089 68.0187 126.652 67.832C126.22 67.6453 125.844 67.376 125.524 67.024C125.204 66.6667 124.953 66.2293 124.772 65.712C124.591 65.1947 124.5 64.6053 124.5 63.944C124.5 63.3413 124.583 62.784 124.748 62.272C124.919 61.76 125.164 61.32 125.484 60.952C125.809 60.5787 126.207 60.288 126.676 60.08C127.151 59.872 127.695 59.768 128.308 59.768C128.879 59.768 129.38 59.8613 129.812 60.048C130.249 60.2293 130.636 60.488 130.972 60.824L130.596 61.336ZM137.88 63.064C137.88 62.7333 137.832 62.432 137.736 62.16C137.645 61.8827 137.509 61.6453 137.328 61.448C137.152 61.2453 136.936 61.0907 136.68 60.984C136.424 60.872 136.133 60.816 135.808 60.816C135.125 60.816 134.584 61.016 134.184 61.416C133.789 61.8107 133.544 62.36 133.448 63.064H137.88ZM139.032 66.864C138.856 67.0773 138.645 67.264 138.4 67.424C138.155 67.5787 137.891 67.7067 137.608 67.808C137.331 67.9093 137.043 67.984 136.744 68.032C136.445 68.0853 136.149 68.112 135.856 68.112C135.296 68.112 134.779 68.0187 134.304 67.832C133.835 67.64 133.427 67.3627 133.08 67C132.739 66.632 132.472 66.1787 132.28 65.64C132.088 65.1013 131.992 64.4827 131.992 63.784C131.992 63.2187 132.077 62.6907 132.248 62.2C132.424 61.7093 132.675 61.2853 133 60.928C133.325 60.5653 133.723 60.2827 134.192 60.08C134.661 59.872 135.189 59.768 135.776 59.768C136.261 59.768 136.709 59.8507 137.12 60.016C137.536 60.176 137.893 60.4107 138.192 60.72C138.496 61.024 138.733 61.4027 138.904 61.856C139.075 62.304 139.16 62.816 139.16 63.392C139.16 63.616 139.136 63.7653 139.088 63.84C139.04 63.9147 138.949 63.952 138.816 63.952H133.4C133.416 64.464 133.485 64.9093 133.608 65.288C133.736 65.6667 133.912 65.984 134.136 66.24C134.36 66.4907 134.627 66.68 134.936 66.808C135.245 66.9307 135.592 66.992 135.976 66.992C136.333 66.992 136.64 66.952 136.896 66.872C137.157 66.7867 137.381 66.696 137.568 66.6C137.755 66.504 137.909 66.416 138.032 66.336C138.16 66.2507 138.269 66.208 138.36 66.208C138.477 66.208 138.568 66.2533 138.632 66.344L139.032 66.864ZM145.629 61.232C145.565 61.3493 145.467 61.408 145.333 61.408C145.253 61.408 145.163 61.3787 145.061 61.32C144.96 61.2613 144.835 61.1973 144.685 61.128C144.541 61.0533 144.368 60.9867 144.165 60.928C143.963 60.864 143.723 60.832 143.445 60.832C143.205 60.832 142.989 60.864 142.797 60.928C142.605 60.9867 142.44 61.0693 142.301 61.176C142.168 61.2827 142.064 61.408 141.989 61.552C141.92 61.6907 141.885 61.8427 141.885 62.008C141.885 62.216 141.944 62.3893 142.061 62.528C142.184 62.6667 142.344 62.7867 142.541 62.888C142.739 62.9893 142.963 63.08 143.213 63.16C143.464 63.2347 143.72 63.3173 143.981 63.408C144.248 63.4933 144.507 63.5893 144.757 63.696C145.008 63.8027 145.232 63.936 145.429 64.096C145.627 64.256 145.784 64.4533 145.901 64.688C146.024 64.9173 146.085 65.1947 146.085 65.52C146.085 65.8933 146.019 66.24 145.885 66.56C145.752 66.8747 145.555 67.1493 145.293 67.384C145.032 67.6133 144.712 67.7947 144.333 67.928C143.955 68.0613 143.517 68.128 143.021 68.128C142.456 68.128 141.944 68.0373 141.485 67.856C141.027 67.6693 140.637 67.432 140.317 67.144L140.653 66.6C140.696 66.5307 140.747 66.4773 140.805 66.44C140.864 66.4027 140.939 66.384 141.029 66.384C141.125 66.384 141.227 66.4213 141.333 66.496C141.44 66.5707 141.568 66.6533 141.717 66.744C141.872 66.8347 142.059 66.9173 142.277 66.992C142.496 67.0667 142.768 67.104 143.093 67.104C143.371 67.104 143.613 67.0693 143.821 67C144.029 66.9253 144.203 66.8267 144.341 66.704C144.48 66.5813 144.581 66.44 144.645 66.28C144.715 66.12 144.749 65.9493 144.749 65.768C144.749 65.544 144.688 65.36 144.565 65.216C144.448 65.0667 144.291 64.9413 144.093 64.84C143.896 64.7333 143.669 64.6427 143.413 64.568C143.163 64.488 142.904 64.4053 142.637 64.32C142.376 64.2347 142.117 64.1387 141.861 64.032C141.611 63.92 141.387 63.7813 141.189 63.616C140.992 63.4507 140.832 63.248 140.709 63.008C140.592 62.7627 140.533 62.4667 140.533 62.12C140.533 61.8107 140.597 61.5147 140.725 61.232C140.853 60.944 141.04 60.6933 141.285 60.48C141.531 60.2613 141.832 60.088 142.189 59.96C142.547 59.832 142.955 59.768 143.413 59.768C143.947 59.768 144.424 59.8533 144.845 60.024C145.272 60.1893 145.64 60.4187 145.949 60.712L145.629 61.232Z" fill="#9A9A9A"/>
</svg>
