<svg width="170" height="75" viewBox="0 0 170 75" fill="none" xmlns="http://www.w3.org/2000/svg">
<ellipse cx="16" cy="12.6666" rx="5.33333" ry="6" stroke="#10375C" stroke-width="2.5"/>
<path d="M26.6667 29.3334C26.6667 34 21.3333 32.6667 16 32.6667C10.6667 32.6667 5.33334 34 5.33334 29.3334C5.33334 26.6667 10.109 23.3334 16 23.3334C21.891 23.3334 26.6667 26.6667 26.6667 29.3334Z" stroke="#10375C" stroke-width="2.5"/>
<path d="M64.128 32.512C62.848 32.512 61.7067 32.288 60.704 31.84C59.7227 31.392 58.9653 30.8373 58.432 30.176C57.92 29.4933 57.664 28.8213 57.664 28.16C57.664 27.648 57.8027 27.232 58.08 26.912C58.3573 26.5707 58.7413 26.4 59.232 26.4C59.7227 26.4 60.0747 26.56 60.288 26.88C60.5227 27.1787 60.64 27.4987 60.64 27.84C60.64 28.2027 60.5227 28.6187 60.288 29.088C60.416 29.792 60.864 30.336 61.632 30.72C62.4 31.0827 63.2107 31.264 64.064 31.264C65.5787 31.264 66.72 30.7413 67.488 29.696C68.2773 28.6507 68.672 27.3707 68.672 25.856C68.672 21.6533 67.0187 19.552 63.712 19.552C63.1147 19.552 62.3893 19.6587 61.536 19.872C60.6827 20.0853 60 20.352 59.488 20.672L58.592 19.84L58.528 9.6H66.816C68.0107 9.6 68.8427 9.44 69.312 9.12C69.7813 8.8 70.016 8.26667 70.016 7.52H70.88L70.688 11.744L60 11.968V19.008C60.5973 18.752 61.3013 18.5387 62.112 18.368C62.944 18.1973 63.7867 18.112 64.64 18.112C66.304 18.112 67.68 18.4533 68.768 19.136C69.8773 19.8187 70.688 20.704 71.2 21.792C71.7333 22.88 72 24.0427 72 25.28C72 26.7947 71.6373 28.1067 70.912 29.216C70.208 30.304 69.2587 31.1253 68.064 31.68C66.8693 32.2347 65.5573 32.512 64.128 32.512ZM75.1663 30.944C75.9129 30.9227 76.4463 30.752 76.7663 30.432C77.0863 30.112 77.2676 29.7387 77.3103 29.312C77.3529 28.864 77.3743 28.096 77.3743 27.008V13.184C77.3743 12.288 77.4063 11.52 77.4703 10.88L75.1663 11.008V9.6H82.3663V10.656C81.6196 10.6773 81.0863 10.848 80.7663 11.168C80.4463 11.488 80.2649 11.872 80.2223 12.32C80.1796 12.7467 80.1583 13.504 80.1583 14.592V19.84H82.5583L86.5583 13.536C87.3476 12.3413 88.1049 11.4453 88.8303 10.848L86.8783 10.912V9.6H93.7583V10.656C92.7769 10.7413 91.9449 10.9013 91.2623 11.136C90.6009 11.3707 89.9503 11.7867 89.3103 12.384C88.6703 12.9813 87.9983 13.8453 87.2943 14.976L84.1583 19.968C84.6276 20.2667 85.0329 20.5973 85.3743 20.96C85.7156 21.3013 86.0143 21.6533 86.2703 22.016C86.5476 22.3573 86.7289 22.5813 86.8143 22.688L90.3983 27.456C91.1876 28.5013 91.8383 29.2693 92.3503 29.76C92.8836 30.2507 93.3423 30.5707 93.7263 30.72C94.1103 30.8693 94.5689 30.944 95.1023 30.944V32H91.1983C90.6436 32 89.5663 30.9547 87.9663 28.864L84.1263 23.68C83.6143 23.0187 83.1663 22.4747 82.7823 22.048C82.4196 21.6213 82.0676 21.3013 81.7263 21.088L80.1583 21.12V28.192C80.1583 29.3227 80.1263 30.1653 80.0623 30.72L82.3663 30.592V32H75.1663V30.944ZM102.45 22.784L96.37 22.816V20.896L102.45 20.928V14.624H104.53V20.928L110.61 20.96V22.752L104.53 22.784V29.376H102.45V22.784Z" fill="#10375C"/>
<path d="M63.328 58.328C63.28 58.408 63.2267 58.4693 63.168 58.512C63.1147 58.5493 63.048 58.568 62.968 58.568C62.8773 58.568 62.7707 58.5227 62.648 58.432C62.5253 58.3413 62.3707 58.2427 62.184 58.136C62.0027 58.024 61.7813 57.9227 61.52 57.832C61.264 57.7413 60.952 57.696 60.584 57.696C60.2373 57.696 59.9307 57.744 59.664 57.84C59.4027 57.9307 59.1813 58.056 59 58.216C58.824 58.376 58.6907 58.5653 58.6 58.784C58.5093 58.9973 58.464 59.2293 58.464 59.48C58.464 59.8 58.5413 60.0667 58.696 60.28C58.856 60.488 59.064 60.6667 59.32 60.816C59.5813 60.9653 59.8747 61.096 60.2 61.208C60.5307 61.3147 60.8667 61.4267 61.208 61.544C61.5547 61.6613 61.8907 61.7947 62.216 61.944C62.5467 62.088 62.84 62.272 63.096 62.496C63.3573 62.72 63.5653 62.9947 63.72 63.32C63.88 63.6453 63.96 64.0453 63.96 64.52C63.96 65.0213 63.8747 65.4933 63.704 65.936C63.5333 66.3733 63.2827 66.7547 62.952 67.08C62.6267 67.4053 62.224 67.6613 61.744 67.848C61.2693 68.0347 60.728 68.128 60.12 68.128C59.3733 68.128 58.696 67.9947 58.088 67.728C57.48 67.456 56.96 67.0907 56.528 66.632L56.976 65.896C57.0187 65.8373 57.0693 65.7893 57.128 65.752C57.192 65.7093 57.2613 65.688 57.336 65.688C57.4053 65.688 57.4827 65.7173 57.568 65.776C57.6587 65.8293 57.76 65.8987 57.872 65.984C57.984 66.0693 58.112 66.1627 58.256 66.264C58.4 66.3653 58.5627 66.4587 58.744 66.544C58.9307 66.6293 59.1413 66.7013 59.376 66.76C59.6107 66.8133 59.8747 66.84 60.168 66.84C60.536 66.84 60.864 66.7893 61.152 66.688C61.44 66.5867 61.6827 66.4453 61.88 66.264C62.0827 66.0773 62.2373 65.856 62.344 65.6C62.4507 65.344 62.504 65.0587 62.504 64.744C62.504 64.3973 62.424 64.1147 62.264 63.896C62.1093 63.672 61.904 63.4853 61.648 63.336C61.392 63.1867 61.0987 63.0613 60.768 62.96C60.4373 62.8533 60.1013 62.7467 59.76 62.64C59.4187 62.528 59.0827 62.4 58.752 62.256C58.4213 62.112 58.128 61.9253 57.872 61.696C57.616 61.4667 57.408 61.1813 57.248 60.84C57.0933 60.4933 57.016 60.0667 57.016 59.56C57.016 59.1547 57.0933 58.7627 57.248 58.384C57.408 58.0053 57.6373 57.6693 57.936 57.376C58.24 57.0827 58.6107 56.848 59.048 56.672C59.4907 56.496 59.9973 56.408 60.568 56.408C61.208 56.408 61.7893 56.5093 62.312 56.712C62.84 56.9147 63.304 57.208 63.704 57.592L63.328 58.328ZM67.9441 68.128C67.3041 68.128 66.8108 67.9493 66.4641 67.592C66.1228 67.2347 65.9521 66.72 65.9521 66.048V61.088H64.9761C64.8908 61.088 64.8188 61.064 64.7601 61.016C64.7015 60.9627 64.6721 60.8827 64.6721 60.776V60.208L66.0001 60.04L66.3281 57.536C66.3441 57.456 66.3788 57.392 66.4321 57.344C66.4908 57.2907 66.5655 57.264 66.6561 57.264H67.3761V60.056H69.7201V61.088H67.3761V65.952C67.3761 66.2933 67.4588 66.5467 67.6241 66.712C67.7895 66.8773 68.0028 66.96 68.2641 66.96C68.4135 66.96 68.5415 66.9413 68.6481 66.904C68.7601 66.8613 68.8561 66.816 68.9361 66.768C69.0161 66.72 69.0828 66.6773 69.1361 66.64C69.1948 66.5973 69.2455 66.576 69.2881 66.576C69.3628 66.576 69.4295 66.6213 69.4881 66.712L69.9041 67.392C69.6588 67.6213 69.3628 67.8027 69.0161 67.936C68.6695 68.064 68.3121 68.128 67.9441 68.128ZM75.5825 64.352C74.9265 64.3733 74.3665 64.4267 73.9025 64.512C73.4438 64.592 73.0678 64.6987 72.7745 64.832C72.4865 64.9653 72.2758 65.1227 72.1425 65.304C72.0145 65.4853 71.9505 65.688 71.9505 65.912C71.9505 66.1253 71.9852 66.3093 72.0545 66.464C72.1238 66.6187 72.2172 66.7467 72.3345 66.848C72.4572 66.944 72.5985 67.016 72.7585 67.064C72.9238 67.1067 73.0998 67.128 73.2865 67.128C73.5372 67.128 73.7665 67.104 73.9745 67.056C74.1825 67.0027 74.3772 66.928 74.5585 66.832C74.7452 66.736 74.9212 66.6213 75.0865 66.488C75.2572 66.3547 75.4225 66.2027 75.5825 66.032V64.352ZM70.9825 61.04C71.4305 60.608 71.9132 60.2853 72.4305 60.072C72.9478 59.8587 73.5212 59.752 74.1505 59.752C74.6038 59.752 75.0065 59.8267 75.3585 59.976C75.7105 60.1253 76.0065 60.3333 76.2465 60.6C76.4865 60.8667 76.6678 61.1893 76.7905 61.568C76.9132 61.9467 76.9745 62.3627 76.9745 62.816V68H76.3425C76.2038 68 76.0972 67.9787 76.0225 67.936C75.9478 67.888 75.8892 67.7973 75.8465 67.664L75.6865 66.896C75.4732 67.0933 75.2652 67.2693 75.0625 67.424C74.8598 67.5733 74.6465 67.7013 74.4225 67.808C74.1985 67.9093 73.9585 67.9867 73.7025 68.04C73.4518 68.0987 73.1718 68.128 72.8625 68.128C72.5478 68.128 72.2518 68.0853 71.9745 68C71.6972 67.9093 71.4545 67.776 71.2465 67.6C71.0438 67.424 70.8812 67.2027 70.7585 66.936C70.6412 66.664 70.5825 66.344 70.5825 65.976C70.5825 65.656 70.6705 65.3493 70.8465 65.056C71.0225 64.7573 71.3078 64.4933 71.7025 64.264C72.0972 64.0347 72.6118 63.848 73.2465 63.704C73.8812 63.5547 74.6598 63.4693 75.5825 63.448V62.816C75.5825 62.1867 75.4465 61.712 75.1745 61.392C74.9025 61.0667 74.5052 60.904 73.9825 60.904C73.6305 60.904 73.3345 60.9493 73.0945 61.04C72.8598 61.1253 72.6545 61.224 72.4785 61.336C72.3078 61.4427 72.1585 61.5413 72.0305 61.632C71.9078 61.7173 71.7852 61.76 71.6625 61.76C71.5665 61.76 71.4838 61.736 71.4145 61.688C71.3452 61.6347 71.2865 61.5707 71.2385 61.496L70.9825 61.04ZM80.4956 61.52C80.7516 60.9653 81.0663 60.5333 81.4396 60.224C81.813 59.9093 82.269 59.752 82.8076 59.752C82.9783 59.752 83.141 59.7707 83.2956 59.808C83.4556 59.8453 83.597 59.904 83.7196 59.984L83.6156 61.048C83.5836 61.1813 83.5036 61.248 83.3756 61.248C83.301 61.248 83.1916 61.232 83.0476 61.2C82.9036 61.168 82.741 61.152 82.5596 61.152C82.3036 61.152 82.0743 61.1893 81.8716 61.264C81.6743 61.3387 81.4956 61.4507 81.3356 61.6C81.181 61.744 81.0396 61.9253 80.9116 62.144C80.789 62.3573 80.677 62.6027 80.5756 62.88V68H79.1436V59.896H79.9596C80.1143 59.896 80.221 59.9253 80.2796 59.984C80.3383 60.0427 80.3783 60.144 80.3996 60.288L80.4956 61.52ZM87.4598 68.128C86.8198 68.128 86.3264 67.9493 85.9798 67.592C85.6384 67.2347 85.4678 66.72 85.4678 66.048V61.088H84.4918C84.4064 61.088 84.3344 61.064 84.2758 61.016C84.2171 60.9627 84.1878 60.8827 84.1878 60.776V60.208L85.5158 60.04L85.8438 57.536C85.8598 57.456 85.8944 57.392 85.9478 57.344C86.0064 57.2907 86.0811 57.264 86.1718 57.264H86.8918V60.056H89.2358V61.088H86.8918V65.952C86.8918 66.2933 86.9744 66.5467 87.1398 66.712C87.3051 66.8773 87.5184 66.96 87.7798 66.96C87.9291 66.96 88.0571 66.9413 88.1638 66.904C88.2758 66.8613 88.3718 66.816 88.4518 66.768C88.5318 66.72 88.5984 66.6773 88.6518 66.64C88.7104 66.5973 88.7611 66.576 88.8038 66.576C88.8784 66.576 88.9451 66.6213 89.0038 66.712L89.4198 67.392C89.1744 67.6213 88.8784 67.8027 88.5318 67.936C88.1851 68.064 87.8278 68.128 87.4598 68.128ZM97.3701 59.896V68H96.5221C96.3195 68 96.1915 67.9013 96.1381 67.704L96.0261 66.832C95.6741 67.2213 95.2795 67.536 94.8421 67.776C94.4048 68.0107 93.9035 68.128 93.3381 68.128C92.8955 68.128 92.5035 68.056 92.1621 67.912C91.8261 67.7627 91.5435 67.5547 91.3141 67.288C91.0848 67.0213 90.9115 66.6987 90.7941 66.32C90.6821 65.9413 90.6261 65.5227 90.6261 65.064V59.896H92.0501V65.064C92.0501 65.6773 92.1888 66.152 92.4661 66.488C92.7488 66.824 93.1781 66.992 93.7541 66.992C94.1755 66.992 94.5675 66.8933 94.9301 66.696C95.2981 66.4933 95.6368 66.216 95.9461 65.864V59.896H97.3701ZM101.06 66.048C101.321 66.4 101.607 66.648 101.916 66.792C102.225 66.936 102.572 67.008 102.956 67.008C103.713 67.008 104.295 66.7387 104.7 66.2C105.105 65.6613 105.308 64.8933 105.308 63.896C105.308 63.368 105.26 62.9147 105.164 62.536C105.073 62.1573 104.94 61.848 104.764 61.608C104.588 61.3627 104.372 61.184 104.116 61.072C103.86 60.96 103.569 60.904 103.244 60.904C102.78 60.904 102.372 61.0107 102.02 61.224C101.673 61.4373 101.353 61.7387 101.06 62.128V66.048ZM100.988 61.152C101.329 60.7307 101.724 60.392 102.172 60.136C102.62 59.88 103.132 59.752 103.708 59.752C104.177 59.752 104.601 59.8427 104.98 60.024C105.359 60.2 105.681 60.464 105.948 60.816C106.215 61.1627 106.42 61.5947 106.564 62.112C106.708 62.6293 106.78 63.224 106.78 63.896C106.78 64.4933 106.7 65.0507 106.54 65.568C106.38 66.08 106.148 66.5253 105.844 66.904C105.545 67.2773 105.177 67.5733 104.74 67.792C104.308 68.0053 103.82 68.112 103.276 68.112C102.78 68.112 102.353 68.0293 101.996 67.864C101.644 67.6933 101.332 67.4587 101.06 67.16V70.744H99.628V59.896H100.484C100.687 59.896 100.812 59.9947 100.86 60.192L100.988 61.152ZM112.691 68V59.896H113.547C113.749 59.896 113.875 59.9947 113.923 60.192L114.027 61.024C114.325 60.656 114.661 60.3547 115.035 60.12C115.408 59.8853 115.84 59.768 116.331 59.768C116.875 59.768 117.315 59.92 117.651 60.224C117.992 60.528 118.237 60.9387 118.387 61.456C118.504 61.1627 118.653 60.9093 118.835 60.696C119.021 60.4827 119.229 60.3067 119.459 60.168C119.688 60.0293 119.931 59.928 120.187 59.864C120.448 59.8 120.712 59.768 120.979 59.768C121.405 59.768 121.784 59.8373 122.115 59.976C122.451 60.1093 122.733 60.3067 122.963 60.568C123.197 60.8293 123.376 61.152 123.499 61.536C123.621 61.9147 123.683 62.3493 123.683 62.84V68H122.251V62.84C122.251 62.2053 122.112 61.7253 121.835 61.4C121.557 61.0693 121.157 60.904 120.635 60.904C120.4 60.904 120.176 60.9467 119.963 61.032C119.755 61.112 119.571 61.232 119.411 61.392C119.251 61.552 119.123 61.7547 119.027 62C118.936 62.24 118.891 62.52 118.891 62.84V68H117.459V62.84C117.459 62.1893 117.328 61.704 117.067 61.384C116.805 61.064 116.424 60.904 115.923 60.904C115.571 60.904 115.245 61 114.947 61.192C114.648 61.3787 114.373 61.6347 114.123 61.96V68H112.691ZM131.271 63.064C131.271 62.7333 131.223 62.432 131.127 62.16C131.036 61.8827 130.9 61.6453 130.719 61.448C130.543 61.2453 130.327 61.0907 130.071 60.984C129.815 60.872 129.524 60.816 129.199 60.816C128.516 60.816 127.975 61.016 127.575 61.416C127.18 61.8107 126.935 62.36 126.839 63.064H131.271ZM132.423 66.864C132.247 67.0773 132.036 67.264 131.791 67.424C131.545 67.5787 131.281 67.7067 130.999 67.808C130.721 67.9093 130.433 67.984 130.135 68.032C129.836 68.0853 129.54 68.112 129.247 68.112C128.687 68.112 128.169 68.0187 127.695 67.832C127.225 67.64 126.817 67.3627 126.471 67C126.129 66.632 125.863 66.1787 125.671 65.64C125.479 65.1013 125.383 64.4827 125.383 63.784C125.383 63.2187 125.468 62.6907 125.639 62.2C125.815 61.7093 126.065 61.2853 126.391 60.928C126.716 60.5653 127.113 60.2827 127.583 60.08C128.052 59.872 128.58 59.768 129.167 59.768C129.652 59.768 130.1 59.8507 130.511 60.016C130.927 60.176 131.284 60.4107 131.583 60.72C131.887 61.024 132.124 61.4027 132.295 61.856C132.465 62.304 132.551 62.816 132.551 63.392C132.551 63.616 132.527 63.7653 132.479 63.84C132.431 63.9147 132.34 63.952 132.207 63.952H126.791C126.807 64.464 126.876 64.9093 126.999 65.288C127.127 65.6667 127.303 65.984 127.527 66.24C127.751 66.4907 128.017 66.68 128.327 66.808C128.636 66.9307 128.983 66.992 129.367 66.992C129.724 66.992 130.031 66.952 130.287 66.872C130.548 66.7867 130.772 66.696 130.959 66.6C131.145 66.504 131.3 66.416 131.423 66.336C131.551 66.2507 131.66 66.208 131.751 66.208C131.868 66.208 131.959 66.2533 132.023 66.344L132.423 66.864ZM135.644 61.072C135.82 60.8747 136.007 60.696 136.204 60.536C136.401 60.376 136.609 60.24 136.828 60.128C137.052 60.0107 137.287 59.9227 137.532 59.864C137.783 59.8 138.052 59.768 138.34 59.768C138.783 59.768 139.172 59.8427 139.508 59.992C139.849 60.136 140.132 60.344 140.356 60.616C140.585 60.8827 140.759 61.2053 140.876 61.584C140.993 61.9627 141.052 62.3813 141.052 62.84V68H139.62V62.84C139.62 62.2267 139.479 61.752 139.196 61.416C138.919 61.0747 138.495 60.904 137.924 60.904C137.503 60.904 137.108 61.0053 136.74 61.208C136.377 61.4107 136.041 61.6853 135.732 62.032V68H134.3V59.896H135.156C135.359 59.896 135.484 59.9947 135.532 60.192L135.644 61.072ZM145.6 68.128C144.96 68.128 144.467 67.9493 144.12 67.592C143.779 67.2347 143.608 66.72 143.608 66.048V61.088H142.632C142.547 61.088 142.475 61.064 142.416 61.016C142.358 60.9627 142.328 60.8827 142.328 60.776V60.208L143.656 60.04L143.984 57.536C144 57.456 144.035 57.392 144.088 57.344C144.147 57.2907 144.222 57.264 144.312 57.264H145.032V60.056H147.376V61.088H145.032V65.952C145.032 66.2933 145.115 66.5467 145.28 66.712C145.446 66.8773 145.659 66.96 145.92 66.96C146.07 66.96 146.198 66.9413 146.304 66.904C146.416 66.8613 146.512 66.816 146.592 66.768C146.672 66.72 146.739 66.6773 146.792 66.64C146.851 66.5973 146.902 66.576 146.944 66.576C147.019 66.576 147.086 66.6213 147.144 66.712L147.56 67.392C147.315 67.6213 147.019 67.8027 146.672 67.936C146.326 68.064 145.968 68.128 145.6 68.128ZM152.216 59.768C152.808 59.768 153.341 59.8667 153.816 60.064C154.291 60.2613 154.696 60.5413 155.032 60.904C155.368 61.2667 155.624 61.7067 155.8 62.224C155.981 62.736 156.072 63.3093 156.072 63.944C156.072 64.584 155.981 65.16 155.8 65.672C155.624 66.184 155.368 66.6213 155.032 66.984C154.696 67.3467 154.291 67.6267 153.816 67.824C153.341 68.016 152.808 68.112 152.216 68.112C151.619 68.112 151.08 68.016 150.6 67.824C150.125 67.6267 149.72 67.3467 149.384 66.984C149.048 66.6213 148.789 66.184 148.608 65.672C148.432 65.16 148.344 64.584 148.344 63.944C148.344 63.3093 148.432 62.736 148.608 62.224C148.789 61.7067 149.048 61.2667 149.384 60.904C149.72 60.5413 150.125 60.2613 150.6 60.064C151.08 59.8667 151.619 59.768 152.216 59.768ZM152.216 67C153.016 67 153.613 66.7333 154.008 66.2C154.403 65.6613 154.6 64.912 154.6 63.952C154.6 62.9867 154.403 62.2347 154.008 61.696C153.613 61.1573 153.016 60.888 152.216 60.888C151.811 60.888 151.456 60.9573 151.152 61.096C150.853 61.2347 150.603 61.4347 150.4 61.696C150.203 61.9573 150.053 62.28 149.952 62.664C149.856 63.0427 149.808 63.472 149.808 63.952C149.808 64.912 150.005 65.6613 150.4 66.2C150.8 66.7333 151.405 67 152.216 67ZM159.23 61.52C159.486 60.9653 159.801 60.5333 160.174 60.224C160.547 59.9093 161.003 59.752 161.542 59.752C161.713 59.752 161.875 59.7707 162.03 59.808C162.19 59.8453 162.331 59.904 162.454 59.984L162.35 61.048C162.318 61.1813 162.238 61.248 162.11 61.248C162.035 61.248 161.926 61.232 161.782 61.2C161.638 61.168 161.475 61.152 161.294 61.152C161.038 61.152 160.809 61.1893 160.606 61.264C160.409 61.3387 160.23 61.4507 160.07 61.6C159.915 61.744 159.774 61.9253 159.646 62.144C159.523 62.3573 159.411 62.6027 159.31 62.88V68H157.878V59.896H158.694C158.849 59.896 158.955 59.9253 159.014 59.984C159.073 60.0427 159.113 60.144 159.134 60.288L159.23 61.52ZM168.379 61.232C168.315 61.3493 168.217 61.408 168.083 61.408C168.003 61.408 167.913 61.3787 167.811 61.32C167.71 61.2613 167.585 61.1973 167.435 61.128C167.291 61.0533 167.118 60.9867 166.915 60.928C166.713 60.864 166.473 60.832 166.195 60.832C165.955 60.832 165.739 60.864 165.547 60.928C165.355 60.9867 165.19 61.0693 165.051 61.176C164.918 61.2827 164.814 61.408 164.739 61.552C164.67 61.6907 164.635 61.8427 164.635 62.008C164.635 62.216 164.694 62.3893 164.811 62.528C164.934 62.6667 165.094 62.7867 165.291 62.888C165.489 62.9893 165.713 63.08 165.963 63.16C166.214 63.2347 166.47 63.3173 166.731 63.408C166.998 63.4933 167.257 63.5893 167.507 63.696C167.758 63.8027 167.982 63.936 168.179 64.096C168.377 64.256 168.534 64.4533 168.651 64.688C168.774 64.9173 168.835 65.1947 168.835 65.52C168.835 65.8933 168.769 66.24 168.635 66.56C168.502 66.8747 168.305 67.1493 168.043 67.384C167.782 67.6133 167.462 67.7947 167.083 67.928C166.705 68.0613 166.267 68.128 165.771 68.128C165.206 68.128 164.694 68.0373 164.235 67.856C163.777 67.6693 163.387 67.432 163.067 67.144L163.403 66.6C163.446 66.5307 163.497 66.4773 163.555 66.44C163.614 66.4027 163.689 66.384 163.779 66.384C163.875 66.384 163.977 66.4213 164.083 66.496C164.19 66.5707 164.318 66.6533 164.467 66.744C164.622 66.8347 164.809 66.9173 165.027 66.992C165.246 67.0667 165.518 67.104 165.843 67.104C166.121 67.104 166.363 67.0693 166.571 67C166.779 66.9253 166.953 66.8267 167.091 66.704C167.23 66.5813 167.331 66.44 167.395 66.28C167.465 66.12 167.499 65.9493 167.499 65.768C167.499 65.544 167.438 65.36 167.315 65.216C167.198 65.0667 167.041 64.9413 166.843 64.84C166.646 64.7333 166.419 64.6427 166.163 64.568C165.913 64.488 165.654 64.4053 165.387 64.32C165.126 64.2347 164.867 64.1387 164.611 64.032C164.361 63.92 164.137 63.7813 163.939 63.616C163.742 63.4507 163.582 63.248 163.459 63.008C163.342 62.7627 163.283 62.4667 163.283 62.12C163.283 61.8107 163.347 61.5147 163.475 61.232C163.603 60.944 163.79 60.6933 164.035 60.48C164.281 60.2613 164.582 60.088 164.939 59.96C165.297 59.832 165.705 59.768 166.163 59.768C166.697 59.768 167.174 59.8533 167.595 60.024C168.022 60.1893 168.39 60.4187 168.699 60.712L168.379 61.232Z" fill="#9A9A9A"/>
</svg>
